<?xml version="1.0" encoding="UTF-8"?>
<svg version="1.1" xmlns="http://www.w3.org/2000/svg" width="183" height="275">
<path d="M0 0 C5.83668185 2.5558141 10.01782356 6.00572445 14.3125 10.6484375 C20.27278965 16.05464096 26.16790499 16.38193342 33.87695312 16.17333984 C36.00195574 16.12495547 38.10989025 16.17298385 40.234375 16.23046875 C47.346247 16.26147339 52.25353324 15.57409157 57.65234375 10.6484375 C58.37156006 9.86388184 59.09077637 9.07932617 59.83178711 8.27099609 C65.00949421 2.84784201 72.4597827 -0.87648098 80 -1.2265625 C83.5665707 -0.82253691 85.41161765 0.59220247 88 3 C94.35667481 12.00528931 95.00458781 22.32253542 93.44140625 32.9921875 C92.10445062 42.19309957 92.06816461 49.00728517 95 58 C95.41636195 59.74522971 95.81416697 61.49506226 96.1875 63.25 C96.5896875 65.10625 96.5896875 65.10625 97 67 C99.64 67 102.28 67 105 67 C106.0625 68.875 106.0625 68.875 107 71 C106.67 71.66 106.34 72.32 106 73 C103.93359375 73.6328125 103.93359375 73.6328125 101.4375 74.125 C100.61121094 74.29257813 99.78492188 74.46015625 98.93359375 74.6328125 C98.29550781 74.75398438 97.65742188 74.87515625 97 75 C96.67 76.32 96.34 77.64 96 79 C97.27875 79.0825 98.5575 79.165 99.875 79.25 C102.0859375 79.51171875 102.0859375 79.51171875 104 80 C105.5 82.0625 105.5 82.0625 106 84 C104.82421875 85.55078125 104.82421875 85.55078125 103 87 C100.51953125 86.85546875 100.51953125 86.85546875 97.8125 86.1875 C96.46091797 85.86845703 96.46091797 85.86845703 95.08203125 85.54296875 C94.39496094 85.36378906 93.70789063 85.18460937 93 85 C92.79375 85.845625 92.5875 86.69125 92.375 87.5625 C88.60853844 96.9786539 80.19671057 102.18569703 71.23046875 106.2578125 C60.36705678 110.45398021 49.49452027 111.37324694 37.94995117 111.37060547 C35.83233908 111.37495921 33.71685266 111.41135376 31.59960938 111.44921875 C15.32356873 111.58352178 -2.21135141 108.06246119 -14.53125 96.6484375 C-17.33864648 93.49758294 -21 89.37543131 -21 85 C-21.68707031 85.17917969 -22.37414063 85.35835938 -23.08203125 85.54296875 C-23.98308594 85.75566406 -24.88414063 85.96835938 -25.8125 86.1875 C-26.70582031 86.40792969 -27.59914063 86.62835938 -28.51953125 86.85546875 C-31 87 -31 87 -32.82421875 85.55078125 C-33.21222656 85.03902344 -33.60023437 84.52726562 -34 84 C-33 81 -33 81 -30.6875 79.8125 C-28 79 -28 79 -24 79 C-24.33 77.68 -24.66 76.36 -25 75 C-27.64 74.34 -30.28 73.68 -33 73 C-33.38218767 71.34385343 -33.71395102 69.67542976 -34 68 C-33 67 -33 67 -30.93359375 66.90234375 C-30.10988281 66.91394531 -29.28617188 66.92554688 -28.4375 66.9375 C-27.19806641 66.95103516 -27.19806641 66.95103516 -25.93359375 66.96484375 C-24.97646484 66.98224609 -24.97646484 66.98224609 -24 67 C-23.87882812 66.14277344 -23.75765625 65.28554687 -23.6328125 64.40234375 C-23.46523438 63.25894531 -23.29765625 62.11554688 -23.125 60.9375 C-22.96257813 59.81214844 -22.80015625 58.68679687 -22.6328125 57.52734375 C-22 54 -22 54 -20.90625 50.55859375 C-19.89318287 46.58055861 -19.99917629 43.154455 -20.375 39.125 C-20.48244657 37.62653366 -20.58651435 36.12782187 -20.6875 34.62890625 C-20.74035156 33.86594238 -20.79320312 33.10297852 -20.84765625 32.31689453 C-22.24591174 11.05175891 -22.24591174 11.05175891 -16 3 C-11.10327718 -1.89672282 -6.36395782 -1.75102981 0 0 Z " fill="#FCFBFA" transform="translate(56,82)"/>
<path d="M0 0 C5.83668185 2.5558141 10.01782356 6.00572445 14.3125 10.6484375 C20.27278965 16.05464096 26.16790499 16.38193342 33.87695312 16.17333984 C36.00195574 16.12495547 38.10989025 16.17298385 40.234375 16.23046875 C47.346247 16.26147339 52.25353324 15.57409157 57.65234375 10.6484375 C58.37156006 9.86388184 59.09077637 9.07932617 59.83178711 8.27099609 C65.00949421 2.84784201 72.4597827 -0.87648098 80 -1.2265625 C83.5665707 -0.82253691 85.41161765 0.59220247 88 3 C94.35667481 12.00528931 95.00458781 22.32253542 93.44140625 32.9921875 C92.10445062 42.19309957 92.06816461 49.00728517 95 58 C95.41636195 59.74522971 95.81416697 61.49506226 96.1875 63.25 C96.5896875 65.10625 96.5896875 65.10625 97 67 C99.64 67 102.28 67 105 67 C106.0625 68.875 106.0625 68.875 107 71 C106.67 71.66 106.34 72.32 106 73 C103.93359375 73.6328125 103.93359375 73.6328125 101.4375 74.125 C100.61121094 74.29257813 99.78492188 74.46015625 98.93359375 74.6328125 C98.29550781 74.75398438 97.65742188 74.87515625 97 75 C96.67 76.32 96.34 77.64 96 79 C97.27875 79.0825 98.5575 79.165 99.875 79.25 C102.0859375 79.51171875 102.0859375 79.51171875 104 80 C105.5 82.0625 105.5 82.0625 106 84 C104.82421875 85.55078125 104.82421875 85.55078125 103 87 C100.51953125 86.85546875 100.51953125 86.85546875 97.8125 86.1875 C96.46091797 85.86845703 96.46091797 85.86845703 95.08203125 85.54296875 C94.39496094 85.36378906 93.70789063 85.18460937 93 85 C92.79375 85.845625 92.5875 86.69125 92.375 87.5625 C88.60853844 96.9786539 80.19671057 102.18569703 71.23046875 106.2578125 C60.36705678 110.45398021 49.49452027 111.37324694 37.94995117 111.37060547 C35.83233908 111.37495921 33.71685266 111.41135376 31.59960938 111.44921875 C15.32356873 111.58352178 -2.21135141 108.06246119 -14.53125 96.6484375 C-17.33864648 93.49758294 -21 89.37543131 -21 85 C-21.68707031 85.17917969 -22.37414063 85.35835938 -23.08203125 85.54296875 C-23.98308594 85.75566406 -24.88414063 85.96835938 -25.8125 86.1875 C-26.70582031 86.40792969 -27.59914063 86.62835938 -28.51953125 86.85546875 C-31 87 -31 87 -32.82421875 85.55078125 C-33.21222656 85.03902344 -33.60023437 84.52726562 -34 84 C-33 81 -33 81 -30.6875 79.8125 C-28 79 -28 79 -24 79 C-24.33 77.68 -24.66 76.36 -25 75 C-27.64 74.34 -30.28 73.68 -33 73 C-33.38218767 71.34385343 -33.71395102 69.67542976 -34 68 C-33 67 -33 67 -30.93359375 66.90234375 C-30.10988281 66.91394531 -29.28617188 66.92554688 -28.4375 66.9375 C-27.19806641 66.95103516 -27.19806641 66.95103516 -25.93359375 66.96484375 C-24.97646484 66.98224609 -24.97646484 66.98224609 -24 67 C-23.87882812 66.14277344 -23.75765625 65.28554687 -23.6328125 64.40234375 C-23.46523438 63.25894531 -23.29765625 62.11554688 -23.125 60.9375 C-22.96257813 59.81214844 -22.80015625 58.68679687 -22.6328125 57.52734375 C-22 54 -22 54 -20.90625 50.55859375 C-19.89318287 46.58055861 -19.99917629 43.154455 -20.375 39.125 C-20.48244657 37.62653366 -20.58651435 36.12782187 -20.6875 34.62890625 C-20.74035156 33.86594238 -20.79320312 33.10297852 -20.84765625 32.31689453 C-22.24591174 11.05175891 -22.24591174 11.05175891 -16 3 C-11.10327718 -1.89672282 -6.36395782 -1.75102981 0 0 Z M-10 38 C-17.67579468 48.03086804 -19.31968929 64.89151063 -18 77 C-16.37369377 84.64075233 -13.13912488 91.06155431 -7 96 C6.24858052 104.27204085 19.46317596 106.5176205 34.9375 106.375 C36.81985352 106.39240234 36.81985352 106.39240234 38.74023438 106.41015625 C53.19466556 106.36542877 70.57632337 104.09203387 81.5390625 93.6640625 C89.59415749 84.48900778 90.94777227 74.10959733 90.24707031 62.27832031 C88.92856939 50.11996987 83.88228675 38.46998429 74.34765625 30.6640625 C49.70256038 13.19515927 10.74037823 15.58209117 -10 38 Z " fill="#401314" transform="translate(56,82)"/>
<path d="M0 0 C6.30724846 6.81864699 7.51923577 15.43584228 7.4921875 24.40234375 C7.35186839 26.82132312 7.10886924 29.1132435 6.7578125 31.50390625 C5.41110775 40.69997581 5.38209218 47.51166392 8.3125 56.5 C8.72886195 58.24522971 9.12666697 59.99506226 9.5 61.75 C9.768125 62.9875 10.03625 64.225 10.3125 65.5 C12.9525 65.5 15.5925 65.5 18.3125 65.5 C19.375 67.375 19.375 67.375 20.3125 69.5 C19.9825 70.16 19.6525 70.82 19.3125 71.5 C17.24609375 72.1328125 17.24609375 72.1328125 14.75 72.625 C13.92371094 72.79257813 13.09742188 72.96015625 12.24609375 73.1328125 C11.60800781 73.25398438 10.96992188 73.37515625 10.3125 73.5 C9.8175 75.48 9.8175 75.48 9.3125 77.5 C10.59125 77.5825 11.87 77.665 13.1875 77.75 C15.3984375 78.01171875 15.3984375 78.01171875 17.3125 78.5 C18.8125 80.5625 18.8125 80.5625 19.3125 82.5 C18.13671875 84.05078125 18.13671875 84.05078125 16.3125 85.5 C13.83203125 85.35546875 13.83203125 85.35546875 11.125 84.6875 C9.77341797 84.36845703 9.77341797 84.36845703 8.39453125 84.04296875 C7.70746094 83.86378906 7.02039063 83.68460937 6.3125 83.5 C6.10625 84.345625 5.9 85.19125 5.6875 86.0625 C3.97388645 90.34653389 1.44317644 93.17242567 -1.6875 96.5 C-2.3475 96.17 -3.0075 95.84 -3.6875 95.5 C-3.3125 93.5625 -3.3125 93.5625 -2.6875 91.5 C-1.6975 91.005 -1.6975 91.005 -0.6875 90.5 C-2.1725 89.51 -2.1725 89.51 -3.6875 88.5 C-2.7109375 87.16536458 -1.734375 85.83072917 -0.7578125 84.49609375 C2.10611616 79.15497132 2.69795563 73.5263903 2.6875 67.5625 C2.68951416 66.83321289 2.69152832 66.10392578 2.69360352 65.35253906 C2.5822341 59.22392623 1.42380105 53.61840272 -0.35205078 47.76586914 C-1.48504433 43.958991 -1.84992123 41.33087249 -0.6875 37.5 C-0.0275 37.5 0.6325 37.5 1.3125 37.5 C1.230829 33.83247572 1.11805924 30.16651907 1 26.5 C0.97744141 25.47003906 0.95488281 24.44007812 0.93164062 23.37890625 C0.69231151 16.54714779 0.41622264 9.60372264 -4.6875 4.5 C-8.6156382 2.08268419 -11.61467166 2.28222847 -16.0859375 2.81640625 C-19.72207254 3.77184714 -22.0863827 5.59222396 -24.8984375 8.02734375 C-26.73523763 9.53929495 -28.52948646 10.5160599 -30.6875 11.5 C-23.78859701 2.17715812 -11.5555077 -6.44958569 0 0 Z " fill="#3E0D0F" transform="translate(142.6875,83.5)"/>
<path d="M0 0 C3.87650239 3.56219138 5.71964024 7.87835027 6.19067383 13.12304688 C6.26769002 15.48119728 6.27296085 17.8282722 6.25 20.1875 C6.25773437 20.99380859 6.26546875 21.80011719 6.2734375 22.63085938 C6.27085937 23.40623047 6.26828125 24.18160156 6.265625 24.98046875 C6.26336914 25.68067139 6.26111328 26.38087402 6.25878906 27.10229492 C6 29 6 29 4 32 C3.38125 31.154375 2.7625 30.30875 2.125 29.4375 C-4.7975465 21.23872984 -14.05608314 17.38217862 -24 14 C-22.71478967 10.144369 -21.04158971 9.32347509 -17.75 7 C-16.79609375 6.319375 -15.8421875 5.63875 -14.859375 4.9375 C-6.2343071 -0.90680831 -6.2343071 -0.90680831 0 0 Z " fill="#FCF7F7" transform="translate(138,87)"/>
<path d="M0 0 C6.40356942 3.06441441 11.78347744 7.23708809 17 12 C13.14656028 15.16327141 8.79466532 17.1348974 4.30859375 19.21875 C-1.73238838 22.12785636 -6.01068508 25.61442486 -10 31 C-10.66 31 -11.32 31 -12 31 C-13.83544059 21.03191612 -14.43948608 10.96878475 -9 2 C-5.34857269 -0.43428487 -4.32288211 -0.62878285 0 0 Z " fill="#F7F0F1" transform="translate(53,87)"/>
<path d="M0 0 C-2.53726007 1.69150671 -4.87705687 2.90948835 -7.625 4.1875 C-13.00073323 6.83984415 -20.21960439 10.43920877 -23 16 C-22.13117188 16.11085938 -21.26234375 16.22171875 -20.3671875 16.3359375 C-11.38227237 18.10790452 -3.23945078 23.39258161 3 30 C3.99 31.485 3.99 31.485 5 33 C5.99 32.01 5.99 32.01 7 31 C7 32.65 7 34.3 7 36 C6.34 36 5.68 36 5 36 C5.495 37.98 5.495 37.98 6 40 C4.515 40.495 4.515 40.495 3 41 C2.72027344 40.49210937 2.44054687 39.98421875 2.15234375 39.4609375 C-4.34111412 28.3113989 -14.63463248 22.44634083 -27 19.125 C-38.75179844 16.8465901 -51.08974174 17.75852564 -63 18 C-62.67 17.34 -62.34 16.68 -62 16 C-61.34 16 -60.68 16 -60 16 C-60 15.34 -60 14.68 -60 14 C-56.37 14.33 -52.74 14.66 -49 15 C-49 14.34 -49 13.68 -49 13 C-48.40461426 12.98018066 -47.80922852 12.96036133 -47.19580078 12.93994141 C-44.50507847 12.84483874 -41.81514852 12.73510158 -39.125 12.625 C-38.18785156 12.5940625 -37.25070313 12.563125 -36.28515625 12.53125 C-35.38925781 12.49257812 -34.49335937 12.45390625 -33.5703125 12.4140625 C-32.74289551 12.3826416 -31.91547852 12.3512207 -31.06298828 12.31884766 C-28.78013915 12.17400863 -28.78013915 12.17400863 -27 10 C-26.278125 9.7525 -25.55625 9.505 -24.8125 9.25 C-22.09969167 8.04430741 -20.85155008 7.00890634 -18.75 5 C-13.4049196 0.22552732 -6.98283004 -0.35809385 0 0 Z " fill="#441816" transform="translate(137,85)"/>
<path d="M0 0 C2.1875 0.3359375 2.1875 0.3359375 4 1 C0.05229469 8.89541063 -6.09123822 12.75135848 -14 16 C-24.36299889 19.39816495 -34.21030577 20.2118482 -45.05737305 20.24023438 C-47.29579006 20.24992764 -49.53328265 20.28099337 -51.77148438 20.3125 C-59.38608417 20.36810968 -65.88561607 20.0196099 -73 17 C-73.99 16.67 -74.98 16.34 -76 16 C-76 14.68 -76 13.36 -76 12 C-72.71345142 12.4601168 -69.43750314 12.91912088 -66.17382812 13.52246094 C-60.3165999 14.40374851 -54.41239727 14.2268595 -48.5 14.25 C-46.57027344 14.2809375 -46.57027344 14.2809375 -44.6015625 14.3125 C-30.58022599 14.36892389 -13.81172036 12.51852754 -3 2.625 C-2.01 1.75875 -1.02 0.8925 0 0 Z " fill="#5D303C" transform="translate(139,173)"/>
<path d="M0 0 C1.4049404 3.89060419 0.69513239 7.23092362 0.0625 11.25 C-0.13214844 12.51328125 -0.32679687 13.7765625 -0.52734375 15.078125 C-0.68332031 16.04234375 -0.83929688 17.0065625 -1 18 C-3.31 18 -5.62 18 -8 18 C-8 18.66 -8 19.32 -8 20 C-5.69 20.33 -3.38 20.66 -1 21 C-1 22.98 -1 24.96 -1 27 C-0.34 27 0.32 27 1 27 C1.33 26.34 1.66 25.68 2 25 C4 26 4 26 4.859375 28.2578125 C5.15328125 29.20398438 5.4471875 30.15015625 5.75 31.125 C8.95389475 40.04519617 12.7516928 43.67096382 21.3125 47.75 C21.94784668 48.03198242 22.58319336 48.31396484 23.23779297 48.60449219 C24.85769188 49.33482097 26.43327778 50.16164798 28 51 C28.33 51.99 28.66 52.98 29 54 C28.505 54.99 28.505 54.99 28 56 C29.65 56.33 31.3 56.66 33 57 C27.46876451 58.84374516 22.06175665 55.38100508 17 53 C9.62018689 48.69899641 3.81594467 43.76069759 0 36 C0 35.34 0 34.68 0 34 C-0.68707031 34.17917969 -1.37414063 34.35835937 -2.08203125 34.54296875 C-2.98308594 34.75566406 -3.88414063 34.96835938 -4.8125 35.1875 C-5.70582031 35.40792969 -6.59914063 35.62835938 -7.51953125 35.85546875 C-10 36 -10 36 -11.82421875 34.55078125 C-12.40623047 33.78314453 -12.40623047 33.78314453 -13 33 C-12 30 -12 30 -9.6875 28.8125 C-7 28 -7 28 -3 28 C-3.33 26.68 -3.66 25.36 -4 24 C-6.64 23.34 -9.28 22.68 -12 22 C-12.38218767 20.34385343 -12.71395102 18.67542976 -13 17 C-12 16 -12 16 -9.93359375 15.90234375 C-8.69802734 15.91974609 -8.69802734 15.91974609 -7.4375 15.9375 C-6.61121094 15.94652344 -5.78492188 15.95554688 -4.93359375 15.96484375 C-4.29550781 15.97644531 -3.65742188 15.98804688 -3 16 C-2.86722656 15.09636719 -2.73445313 14.19273437 -2.59765625 13.26171875 C-2.33275391 11.49248047 -2.33275391 11.49248047 -2.0625 9.6875 C-1.80146484 7.92986328 -1.80146484 7.92986328 -1.53515625 6.13671875 C-1 3 -1 3 0 0 Z " fill="#50252F" transform="translate(35,133)"/>
<path d="M0 0 C4.66181933 2.04135567 8.71708479 4.44017834 11.97265625 8.3984375 C15.21005336 12.23490435 17.73971451 14.6865074 22.88330078 15.39990234 C30.26503424 15.78887339 37.62942222 15.49277577 45 15 C45 15.33 45 15.66 45 16 C40.71 16 36.42 16 32 16 C32 16.66 32 17.32 32 18 C32.66 18.33 33.32 18.66 34 19 C29.44715093 19.07716693 25.45043078 19.00134693 21 18 C19.824375 18 18.64875 18 17.4375 18 C11.87695324 17.39628349 7.93051657 13.51517076 3.734375 10.12890625 C-0.60630275 6.74937857 -3.41651741 5.40601249 -9 6 C-11.03667615 7.54506466 -11.86073078 8.72146156 -13 11 C-14.65 11 -16.3 11 -18 11 C-17.67 11.99 -17.34 12.98 -17 14 C-17.99 15.485 -17.99 15.485 -19 17 C-19.4603764 20.19806665 -19.4603764 20.19806665 -19.625 23.6875 C-19.69976562 24.86699219 -19.77453125 26.04648438 -19.8515625 27.26171875 C-19.92503906 28.61716797 -19.92503906 28.61716797 -20 30 C-20.33 30 -20.66 30 -21 30 C-22.00536552 10.74166484 -22.00536552 10.74166484 -16 3 C-11.10327718 -1.89672282 -6.36395782 -1.75102981 0 0 Z " fill="#6D384A" transform="translate(56,82)"/>
<path d="M0 0 C1.5994614 3.19892281 2.42595236 5.35462576 3.125 8.75 C3.29257813 9.54921875 3.46015625 10.3484375 3.6328125 11.171875 C3.81457031 12.07679688 3.81457031 12.07679688 4 13 C6.64 13 9.28 13 12 13 C13.0625 14.875 13.0625 14.875 14 17 C13.67 17.66 13.34 18.32 13 19 C10.93359375 19.6328125 10.93359375 19.6328125 8.4375 20.125 C7.61121094 20.29257813 6.78492188 20.46015625 5.93359375 20.6328125 C5.29550781 20.75398438 4.65742188 20.87515625 4 21 C3.67 22.32 3.34 23.64 3 25 C4.27875 25.0825 5.5575 25.165 6.875 25.25 C9.0859375 25.51171875 9.0859375 25.51171875 11 26 C12.5 28.0625 12.5 28.0625 13 30 C11.82421875 31.55078125 11.82421875 31.55078125 10 33 C7.51953125 32.85546875 7.51953125 32.85546875 4.8125 32.1875 C3.91144531 31.97480469 3.01039063 31.76210937 2.08203125 31.54296875 C1.39496094 31.36378906 0.70789063 31.18460938 0 31 C-0.20625 31.845625 -0.4125 32.69125 -0.625 33.5625 C-2.33861355 37.84653389 -4.86932356 40.67242567 -8 44 C-8.66 43.67 -9.32 43.34 -10 43 C-9.625 41.0625 -9.625 41.0625 -9 39 C-8.01 38.505 -8.01 38.505 -7 38 C-7.99 37.34 -8.98 36.68 -10 36 C-9.071875 34.7315625 -9.071875 34.7315625 -8.125 33.4375 C-5.86952264 30.08627655 -4.93874355 26.91143146 -4 23 C-3.67 23.66 -3.34 24.32 -3 25 C-2.01 24.67 -1.02 24.34 0 24 C0.309375 23.175 0.61875 22.35 0.9375 21.5 C1.288125 20.675 1.63875 19.85 2 19 C4.125 18.1875 4.125 18.1875 6 18 C6 17.34 6 16.68 6 16 C4.35 15.67 2.7 15.34 1 15 C0.67 10.05 0.34 5.1 0 0 Z " fill="#704454" transform="translate(149,136)"/>
<path d="M0 0 C1.4049404 3.89060419 0.69513239 7.23092362 0.0625 11.25 C-0.13214844 12.51328125 -0.32679687 13.7765625 -0.52734375 15.078125 C-0.68332031 16.04234375 -0.83929688 17.0065625 -1 18 C-3.31 18 -5.62 18 -8 18 C-8 18.66 -8 19.32 -8 20 C-5.69 20.33 -3.38 20.66 -1 21 C-1 22.98 -1 24.96 -1 27 C-0.34 27 0.32 27 1 27 C1.33 26.34 1.66 25.68 2 25 C4.67868487 26.33934244 4.74954078 27.51692397 5.6875 30.3125 C5.95949219 31.09238281 6.23148438 31.87226563 6.51171875 32.67578125 C7.03839183 35.18274511 6.8178554 36.60132343 6 39 C5.34 38.67 4.68 38.34 4 38 C4.33 37.34 4.66 36.68 5 36 C3.68 35.67 2.36 35.34 1 35 C1 34.34 1 33.68 1 33 C-0.051875 33.185625 -1.10375 33.37125 -2.1875 33.5625 C-5.57119882 33.95079331 -7.76425888 33.88247485 -11 33 C-10.67 31.68 -10.34 30.36 -10 29 C-6.535 28.505 -6.535 28.505 -3 28 C-3.33 26.68 -3.66 25.36 -4 24 C-6.64 23.34 -9.28 22.68 -12 22 C-12.38218767 20.34385343 -12.71395102 18.67542976 -13 17 C-12 16 -12 16 -9.93359375 15.90234375 C-8.69802734 15.91974609 -8.69802734 15.91974609 -7.4375 15.9375 C-6.61121094 15.94652344 -5.78492188 15.95554688 -4.93359375 15.96484375 C-4.29550781 15.97644531 -3.65742188 15.98804688 -3 16 C-2.86722656 15.09636719 -2.73445313 14.19273437 -2.59765625 13.26171875 C-2.33275391 11.49248047 -2.33275391 11.49248047 -2.0625 9.6875 C-1.80146484 7.92986328 -1.80146484 7.92986328 -1.53515625 6.13671875 C-1 3 -1 3 0 0 Z " fill="#3E1011" transform="translate(35,133)"/>
<path d="M0 0 C7.10408022 7.68008672 7.70014733 17.52553613 7.3125 27.5 C7.05410977 30.51603765 6.70003907 33.49657221 6.3125 36.5 C5.9825 36.5 5.6525 36.5 5.3125 36.5 C4.9825 28.58 4.6525 20.66 4.3125 12.5 C3.6525 12.17 2.9925 11.84 2.3125 11.5 C2.3125 10.84 2.3125 10.18 2.3125 9.5 C1.3225 9.83 0.3325 10.16 -0.6875 10.5 C-1.265 9.55125 -1.8425 8.6025 -2.4375 7.625 C-4.6340339 4.57425847 -5.33060893 3.75275283 -8.6875 2.5 C-14.25958317 2.04513607 -18.61547886 3.03144823 -23.0625 6.4375 C-23.66835937 6.96214844 -24.27421875 7.48679687 -24.8984375 8.02734375 C-26.73523763 9.53929495 -28.52948646 10.5160599 -30.6875 11.5 C-23.78859701 2.17715812 -11.5555077 -6.44958569 0 0 Z " fill="#93657D" transform="translate(142.6875,83.5)"/>
<path d="M0 0 C3.77010612 4.90113796 3.31429926 10.10979897 3 16 C2.175 15.443125 1.35 14.88625 0.5 14.3125 C-7.3698182 8.9378668 -7.3698182 8.9378668 -16 5 C-15.34 4.67 -14.68 4.34 -14 4 C-14 3.34 -14 2.68 -14 2 C-4.88209607 -1.930131 -4.88209607 -1.930131 0 0 Z " fill="#EFC7D7" transform="translate(136,98)"/>
<path d="M0 0 C5.06853506 0.49050339 6.97784251 2.19364694 10.875 5.375 C8.28527975 7.10148016 5.67113425 8.7171265 3 10.3125 C2.15695313 10.81652344 1.31390625 11.32054688 0.4453125 11.83984375 C-0.82699219 12.59974609 -0.82699219 12.59974609 -2.125 13.375 C-3.79187034 14.37466047 -5.4585969 15.37456086 -7.125 16.375 C-7.47463286 10.54778563 -7.32139756 6.48923609 -4.125 1.375 C-3.125 0.375 -3.125 0.375 0 0 Z " fill="#EFCFDE" transform="translate(53.125,96.625)"/>
<path d="M0 0 C1.67542976 0.28604898 3.34385343 0.61781233 5 1 C5 3.31 5 5.62 5 8 C7.31 8 9.62 8 12 8 C12 9.32 12 10.64 12 12 C8.84150315 13.57924842 5.4634872 13.14316514 2 13.125 C0.89398438 13.13080078 0.89398438 13.13080078 -0.234375 13.13671875 C-5.7466804 13.1266598 -5.7466804 13.1266598 -8 12 C-7.67 10.35 -7.34 8.7 -7 7 C-4.03 7.495 -4.03 7.495 -1 8 C-1.020625 6.865625 -1.04125 5.73125 -1.0625 4.5625 C-1 1 -1 1 0 0 Z " fill="#3B0D09" transform="translate(90,152)"/>
<path d="M0 0 C2.87463041 1.4187692 5.44630081 3.06689251 8 5 C5 5 5 5 2.0625 3.4375 C-0.80238127 1.75680127 -0.80238127 1.75680127 -3.375 2.3125 C-3.91125 2.539375 -4.4475 2.76625 -5 3 C-5 3.66 -5 4.32 -5 5 C-5.94875 5.2475 -6.8975 5.495 -7.875 5.75 C-11.08693191 6.6857077 -11.08693191 6.6857077 -12.375 9.125 C-12.58125 9.74375 -12.7875 10.3625 -13 11 C-14.65 11 -16.3 11 -18 11 C-17.67 11.99 -17.34 12.98 -17 14 C-17.99 15.485 -17.99 15.485 -19 17 C-19.4603764 20.19806665 -19.4603764 20.19806665 -19.625 23.6875 C-19.69976562 24.86699219 -19.77453125 26.04648438 -19.8515625 27.26171875 C-19.92503906 28.61716797 -19.92503906 28.61716797 -20 30 C-20.33 30 -20.66 30 -21 30 C-22.00536552 10.74166484 -22.00536552 10.74166484 -16 3 C-11.13646958 -1.86353042 -6.33637723 -1.72986986 0 0 Z " fill="#885A6F" transform="translate(56,82)"/>
<path d="M0 0 C1.01457275 0.14945068 2.02914551 0.29890137 3.07446289 0.45288086 C6.64957008 0.95115906 10.21931675 1.37347597 13.80859375 1.75390625 C15.04931641 1.88603516 16.29003906 2.01816406 17.56835938 2.15429688 C18.84517578 2.28900391 20.12199219 2.42371094 21.4375 2.5625 C23.39333008 2.77036133 23.39333008 2.77036133 25.38867188 2.98242188 C28.59233057 3.32273727 31.79610746 3.66189439 35 4 C35 4.66 35 5.32 35 6 C28.60188509 6.82556321 22.25725696 7.16039798 15.8125 7.25 C15.05275879 7.27126953 14.29301758 7.29253906 13.51025391 7.31445312 C8.26173385 7.34647722 4.69266081 6.36186902 0 4 C0 2.68 0 1.36 0 0 Z " fill="#410F1A" transform="translate(63,185)"/>
<path d="M0 0 C2.58361518 -0.05407567 5.16609255 -0.093707 7.75 -0.125 C8.84441406 -0.15013672 8.84441406 -0.15013672 9.9609375 -0.17578125 C13.80113264 -0.21069211 16.76804822 -0.20360349 20 2 C20.495 2.495 20.495 2.495 21 3 C21 2.01 21 1.02 21 0 C21.66 0 22.32 0 23 0 C25 4.875 25 4.875 25 6 C24.37633545 5.9285376 23.7526709 5.8570752 23.11010742 5.78344727 C15.16290918 4.95824168 7.29676817 4.88369208 -0.6875 4.9375 C-1.97333984 4.94201172 -3.25917969 4.94652344 -4.58398438 4.95117188 C-7.72270653 4.96283999 -10.86132728 4.97920985 -14 5 C-13.67 4.34 -13.34 3.68 -13 3 C-12.34 3 -11.68 3 -11 3 C-11 2.34 -11 1.68 -11 1 C-7.37 1.33 -3.74 1.66 0 2 C0 1.34 0 0.68 0 0 Z " fill="#3F090D" transform="translate(88,98)"/>
<path d="M0 0 C1.875 1.1875 1.875 1.1875 3 3 C3.59636329 6.3225955 3.29109393 7.57455503 1.375 10.375 C-1 12 -1 12 -4.125 11.9375 C-7 11 -7 11 -9 8 C-8.75 4.375 -8.75 4.375 -8 1 C-5.20129973 -0.39935013 -3.09501208 -0.25265405 0 0 Z " fill="#39120F" transform="translate(66,148)"/>
<path d="M0 0 C2 3 2 3 1.875 5.5 C0.79727556 8.57921269 -0.09025849 9.54512924 -3 11 C-6.37036311 10.75925978 -7.58798021 10.41201979 -10 8 C-10.32954432 4.90228335 -10.45334601 2.82668977 -8.9375 0.0625 C-5.78433176 -1.66665678 -3.37491745 -0.8590699 0 0 Z " fill="#3F0E0B" transform="translate(126,149)"/>
<path d="M0 0 C1.32 0 2.64 0 4 0 C5.17658149 3.52974448 5.09640965 6.28801575 5.0625 10.01171875 C5.05871338 10.69877396 5.05492676 11.38582916 5.05102539 12.09370422 C5.03474437 15.02567959 5.00679885 17.95751405 4.97949219 20.8894043 C4.96122723 23.03433568 4.94924003 25.17924321 4.9375 27.32421875 C4.92589844 28.60385498 4.91429687 29.88349121 4.90234375 31.2019043 C5.00555345 35.21598737 5.44011871 39.02710221 6 43 C5.01 42.67 4.02 42.34 3 42 C2.93941406 41.22914063 2.87882813 40.45828125 2.81640625 39.6640625 C2.73261719 38.66117188 2.64882812 37.65828125 2.5625 36.625 C2.44068359 35.12839844 2.44068359 35.12839844 2.31640625 33.6015625 C2.15034374 31.02072387 2.15034374 31.02072387 1 29 C1.24786266 26.783481 1.57083525 24.57498848 1.9375 22.375 C2.13214844 21.18648437 2.32679688 19.99796875 2.52734375 18.7734375 C2.68332031 17.85820313 2.83929688 16.94296875 3 16 C2.34 16.33 1.68 16.66 1 17 C0.67 11.39 0.34 5.78 0 0 Z " fill="#5A2A35" transform="translate(143,93)"/>
<path d="M0 0 C1.4049404 3.89060419 0.69513239 7.23092362 0.0625 11.25 C-0.13214844 12.51328125 -0.32679687 13.7765625 -0.52734375 15.078125 C-0.68332031 16.04234375 -0.83929688 17.0065625 -1 18 C-3.31 18 -5.62 18 -8 18 C-8 18.66 -8 19.32 -8 20 C-5.69 20.33 -3.38 20.66 -1 21 C-0.95758277 23.33294775 -0.95907063 25.66702567 -1 28 C-2 29 -2 29 -4.5625 29.0625 C-5.366875 29.041875 -6.17125 29.02125 -7 29 C-5.68 28.67 -4.36 28.34 -3 28 C-3.33 26.68 -3.66 25.36 -4 24 C-6.64 23.34 -9.28 22.68 -12 22 C-12.38218767 20.34385343 -12.71395102 18.67542976 -13 17 C-12 16 -12 16 -9.93359375 15.90234375 C-8.69802734 15.91974609 -8.69802734 15.91974609 -7.4375 15.9375 C-6.61121094 15.94652344 -5.78492188 15.95554688 -4.93359375 15.96484375 C-4.29550781 15.97644531 -3.65742188 15.98804688 -3 16 C-2.86722656 15.09636719 -2.73445313 14.19273437 -2.59765625 13.26171875 C-2.33275391 11.49248047 -2.33275391 11.49248047 -2.0625 9.6875 C-1.80146484 7.92986328 -1.80146484 7.92986328 -1.53515625 6.13671875 C-1 3 -1 3 0 0 Z " fill="#8D5E74" transform="translate(35,133)"/>
<path d="M0 0 C1.5994614 3.19892281 2.42595236 5.35462576 3.125 8.75 C3.29257813 9.54921875 3.46015625 10.3484375 3.6328125 11.171875 C3.81457031 12.07679688 3.81457031 12.07679688 4 13 C6.64 13 9.28 13 12 13 C13.0625 14.875 13.0625 14.875 14 17 C13.67 17.66 13.34 18.32 13 19 C10.93359375 19.6328125 10.93359375 19.6328125 8.4375 20.125 C7.61121094 20.29257813 6.78492188 20.46015625 5.93359375 20.6328125 C5.29550781 20.75398438 4.65742188 20.87515625 4 21 C3.67 22.32 3.34 23.64 3 25 C2.34 25 1.68 25 1 25 C1 23.35 1 21.7 1 20 C2.65 19.34 4.3 18.68 6 18 C6 17.34 6 16.68 6 16 C4.35 15.67 2.7 15.34 1 15 C0.67 10.05 0.34 5.1 0 0 Z " fill="#94647E" transform="translate(149,136)"/>
<path d="M0 0 C1.32 1.32 2.64 2.64 4 4 C3.67 4.33 3.34 4.66 3 5 C3.99 5.66 4.98 6.32 6 7 C5.125 10.875 5.125 10.875 4 12 C2.00390625 12.16796875 2.00390625 12.16796875 -0.4375 12.1875 C-1.64212891 12.20876953 -1.64212891 12.20876953 -2.87109375 12.23046875 C-5 12 -5 12 -7 10 C-7 9.01 -7 8.02 -7 7 C-4.69 6.01 -2.38 5.02 0 4 C-0.33 3.34 -0.66 2.68 -1 2 C-0.67 1.34 -0.34 0.68 0 0 Z " fill="#F2D0E0" transform="translate(57,156)"/>
<path d="M0 0 C-2.54995316 1.69996878 -4.92960652 2.95114907 -7.6875 4.25 C-12.57989787 6.65668618 -16.77793024 9.56809414 -21 13 C-21 12.34 -21 11.68 -21 11 C-21.66 11 -22.32 11 -23 11 C-20.92533335 6.14506941 -17.48101483 3.6268018 -13 1 C-8.63413791 -0.05382878 -4.47957538 -0.10925794 0 0 Z " fill="#381015" transform="translate(137,85)"/>
<path d="M0 0 C0.33 0 0.66 0 1 0 C1 5.61 1 11.22 1 17 C-0.32 17.33 -1.64 17.66 -3 18 C-3 16.02 -3 14.04 -3 12 C-5.97 12 -8.94 12 -12 12 C-11.34 11.67 -10.68 11.34 -10 11 C-10 10.34 -10 9.68 -10 9 C-7.69 9 -5.38 9 -3 9 C-3 6.36 -3 3.72 -3 1 C-2.34 1.33 -1.68 1.66 -1 2 C-1.33 2.66 -1.66 3.32 -2 4 C-1.34 4 -0.68 4 0 4 C0 2.68 0 1.36 0 0 Z " fill="#39080A" transform="translate(37,142)"/>
<path d="M0 0 C1.32 0 2.64 0 4 0 C3.75122898 3.43947146 3.4722077 6.87583148 3.1875 10.3125 C3.11724609 11.28896484 3.04699219 12.26542969 2.97460938 13.27148438 C2.89404297 14.20927734 2.81347656 15.14707031 2.73046875 16.11328125 C2.66239014 16.97735596 2.59431152 17.84143066 2.52416992 18.73168945 C1.91875658 21.3515755 1.04955767 22.31652078 -1 24 C-1.91093654 20.1011916 -2.16432051 16.43828023 -2.1875 12.4375 C-2.20167969 11.32246094 -2.21585938 10.20742187 -2.23046875 9.05859375 C-2.00586791 6.07787407 -1.45927679 4.54364057 0 2 C0 1.34 0 0.68 0 0 Z " fill="#3A0A10" transform="translate(38,93)"/>
<path d="M0 0 C4.3429862 0.65802821 8.07277596 2.03638798 12 4 C12.33 4.99 12.66 5.98 13 7 C12.67 7.66 12.34 8.32 12 9 C13.65 9.33 15.3 9.66 17 10 C13.0062979 11.33123403 11.37754568 10.26957871 7.5 8.75 C6.3553125 8.31171875 5.210625 7.8734375 4.03125 7.421875 C1.35775371 6.16781231 -0.15218371 5.24377693 -2 3 C-1.34 3 -0.68 3 0 3 C0 2.01 0 1.02 0 0 Z " fill="#61323E" transform="translate(51,180)"/>
<path d="M0 0 C1.62490954 -0.02698189 3.24994633 -0.04638757 4.875 -0.0625 C5.77992187 -0.07410156 6.68484375 -0.08570313 7.6171875 -0.09765625 C10 0 10 0 12 1 C11.125 4.875 11.125 4.875 10 6 C8.52351124 6.09823996 7.04224583 6.12973519 5.5625 6.125 C4.75941406 6.12757813 3.95632812 6.13015625 3.12890625 6.1328125 C1 6 1 6 -1 5 C-0.67 3.35 -0.34 1.7 0 0 Z " fill="#F1D0DD" transform="translate(122,162)"/>
<path d="M0 0 C4.29 0 8.58 0 13 0 C12.67 0.66 12.34 1.32 12 2 C14.64 2.33 17.28 2.66 20 3 C20 3.66 20 4.32 20 5 C9.11 5 -1.78 5 -13 5 C-13 4.67 -13 4.34 -13 4 C-5.31516461 3.32546899 2.28410183 2.8432436 10 3 C10 2.34 10 1.68 10 1 C6.7 1 3.4 1 0 1 C0 0.67 0 0.34 0 0 Z " fill="#643547" transform="translate(88,188)"/>
<path d="M0 0 C4.02992782 0.55312735 8.02022924 1.1558062 12 2 C9.36589139 3.7560724 6.7072988 5.42281159 4 7.0625 C3.13375 7.58972656 2.2675 8.11695312 1.375 8.66015625 C-1 10 -1 10 -4 11 C-4 9.68 -4 8.36 -4 7 C-3.34 6.67 -2.68 6.34 -2 6 C-2.33 5.01 -2.66 4.02 -3 3 C-1.02 3.495 -1.02 3.495 1 4 C0.67 2.68 0.34 1.36 0 0 Z " fill="#F1C1CF" transform="translate(52,100)"/>
<path d="M0 0 C5.25452961 0.37532354 8.62044034 2.28467301 13 5 C12.67 6.32 12.34 7.64 12 9 C9.06984666 8.3547078 6.51243525 7.4319105 3.8125 6.125 C3.11769531 5.79757813 2.42289063 5.47015625 1.70703125 5.1328125 C0 4 0 4 -1 1 C-0.67 0.67 -0.34 0.34 0 0 Z " fill="#3D1017" transform="translate(51,83)"/>
<path d="M0 0 C7.41017023 -0.11459026 14.64206267 0.08839714 22 1 C22 1.66 22 2.32 22 3 C14.97195301 3.85373239 8.07721931 4.12109311 1 4 C1 3.67 1 3.34 1 3 C2.65 2.67 4.3 2.34 6 2 C3.03 1.505 3.03 1.505 0 1 C0 0.67 0 0.34 0 0 Z " fill="#390909" transform="translate(76,188)"/>
<path d="M0 0 C2 1 2 1 3.6875 2.0625 C6.83939847 3.34029668 9.63511008 3.12941884 13 3 C13.33 3.66 13.66 4.32 14 5 C14.99 5.33 15.98 5.66 17 6 C17.72870472 8.31470912 18.39239518 10.6505947 19 13 C19.99 14.485 19.99 14.485 21 16 C17.5912072 14.6015209 16.12606165 13.14993067 14.25 10 C13.82203125 9.29875 13.3940625 8.5975 12.953125 7.875 C12 6 12 6 12 4 C11.31292969 4.17917969 10.62585937 4.35835937 9.91796875 4.54296875 C9.01691406 4.75566406 8.11585937 4.96835938 7.1875 5.1875 C6.29417969 5.40792969 5.40085937 5.62835938 4.48046875 5.85546875 C2 6 2 6 0.17578125 4.55078125 C-0.21222656 4.03902344 -0.60023437 3.52726563 -1 3 C-0.67 2.01 -0.34 1.02 0 0 Z " fill="#AD8299" transform="translate(23,163)"/>
<path d="M0 0 C0.33 0 0.66 0 1 0 C1.1953125 2.01822917 1.390625 4.03645833 1.5859375 6.0546875 C1.86374749 8.22668245 1.86374749 8.22668245 4 10 C2 12 2 12 -1.5 12.1875 C-5 12 -5 12 -7 11 C-6.67 9.35 -6.34 7.7 -6 6 C-3.03 6.495 -3.03 6.495 0 7 C0 4.69 0 2.38 0 0 Z " fill="#4B2625" transform="translate(89,153)"/>
<path d="M0 0 C4.92127034 -0.16682272 8.50343896 -0.24828052 13 2 C13 2.99 13 3.98 13 5 C8.17639811 5.19294408 4.50353262 4.75747614 0 3 C0 2.01 0 1.02 0 0 Z " fill="#3E0C12" transform="translate(147,162)"/>
<path d="M0 0 C3.125 0.375 3.125 0.375 6 1 C5.34 2.65 4.68 4.3 4 6 C5.32 6.33 6.64 6.66 8 7 C7.67 7.66 7.34 8.32 7 9 C4.4375 9.625 4.4375 9.625 2 10 C1 7 1 7 1 3 C0.34 3 -0.32 3 -1 3 C-1 3.99 -1 4.98 -1 6 C-3.475 5.01 -3.475 5.01 -6 4 C-5.38125 3.71125 -4.7625 3.4225 -4.125 3.125 C-1.86674235 2.06279958 -1.86674235 2.06279958 0 0 Z " fill="#592A31" transform="translate(110,95)"/>
<path d="M0 0 C2.6875 -0.3125 2.6875 -0.3125 5 0 C4.38125 0.04125 3.7625 0.0825 3.125 0.125 C2.42375 0.41375 1.7225 0.7025 1 1 C0.566875 2.299375 0.566875 2.299375 0.125 3.625 C-1.3349239 8.0047717 -3.87723762 10.68083747 -7 14 C-7.66 13.67 -8.32 13.34 -9 13 C-8.625 11.0625 -8.625 11.0625 -8 9 C-7.34 8.67 -6.68 8.34 -6 8 C-6.99 7.34 -7.98 6.68 -9 6 C-7.68 4.68 -6.36 3.36 -5 2 C-5 2.66 -5 3.32 -5 4 C-4.34 4.33 -3.68 4.66 -3 5 C-2.608125 4.175 -2.21625 3.35 -1.8125 2.5 C-1.214375 1.675 -0.61625 0.85 0 0 Z " fill="#926676" transform="translate(148,166)"/>
<path d="M0 0 C1.05767578 0.2475 1.05767578 0.2475 2.13671875 0.5 C5.1101182 1.01922937 7.79792202 1.06321527 10.8125 1 C15.65844873 0.95207962 20.2144389 1.26375983 25 2 C25 2.33 25 2.66 25 3 C15.76 3.33 6.52 3.66 -3 4 C-2.67 3.34 -2.34 2.68 -2 2 C-1.34 2 -0.68 2 0 2 C0 1.34 0 0.68 0 0 Z " fill="#310600" transform="translate(77,99)"/>
<path d="M0 0 C1.9375 0.75 1.9375 0.75 4 2 C4.75 4.125 4.75 4.125 5 6 C5.66 6 6.32 6 7 6 C6.67 6.99 6.34 7.98 6 9 C1.68607774 8.5206753 -0.16569547 7.2542015 -3 4 C-2.34 4 -1.68 4 -1 4 C-0.67 2.68 -0.34 1.36 0 0 Z " fill="#401217" transform="translate(64,88)"/>
<path d="M0 0 C0 0.99 0 1.98 0 3 C-0.99 3 -1.98 3 -3 3 C-3 3.66 -3 4.32 -3 5 C-4.65 5.33 -6.3 5.66 -8 6 C-8 5.34 -8 4.68 -8 4 C-8.66 4 -9.32 4 -10 4 C-9.67 4.99 -9.34 5.98 -9 7 C-9.99 7 -10.98 7 -12 7 C-12 5.68 -12 4.36 -12 3 C-10.75336669 2.49166409 -9.50250613 1.99368855 -8.25 1.5 C-7.55390625 1.2215625 -6.8578125 0.943125 -6.140625 0.65625 C-4 0 -4 0 0 0 Z " fill="#3C1218" transform="translate(127,183)"/>
<path d="M0 0 C0.33 1.65 0.66 3.3 1 5 C-3.3164922 5.76173392 -6.74433453 6.16063604 -11 5 C-10.67 3.68 -10.34 2.36 -10 1 C-2.25 0 -2.25 0 0 0 Z " fill="#4D1D2C" transform="translate(35,161)"/>
<path d="M0 0 C0.66 1.32 1.32 2.64 2 4 C2.99 2.68 3.98 1.36 5 0 C5 2.64 5 5.28 5 8 C4.01 8.33 3.02 8.66 2 9 C2.02320313 9.62648438 2.04640625 10.25296875 2.0703125 10.8984375 C2.08835938 11.71570313 2.10640625 12.53296875 2.125 13.375 C2.14820313 14.18710938 2.17140625 14.99921875 2.1953125 15.8359375 C2 18 2 18 0 20 C0 13.4 0 6.8 0 0 Z " fill="#71434F" transform="translate(36,112)"/>
<path d="M0 0 C2.475 0.99 2.475 0.99 5 2 C4.01 2.33 3.02 2.66 2 3 C2.33 3.99 2.66 4.98 3 6 C2.67 6.66 2.34 7.32 2 8 C-0.64 7.67 -3.28 7.34 -6 7 C-4.77065985 3.31197956 -3.06140622 2.27643027 0 0 Z " fill="#F4EAE5" transform="translate(120,94)"/>
<path d="M0 0 C2.88594711 1.40134932 5.44483576 3.06578349 8 5 C5 5 5 5 2.0625 3.4375 C-0.80238127 1.75680127 -0.80238127 1.75680127 -3.375 2.3125 C-4.179375 2.6528125 -4.179375 2.6528125 -5 3 C-5 3.66 -5 4.32 -5 5 C-6.65 5.33 -8.3 5.66 -10 6 C-10.33 5.34 -10.66 4.68 -11 4 C-10.01 3.34 -9.02 2.68 -8 2 C-9.32 1.34 -10.64 0.68 -12 0 C-8.25768746 -1.87115627 -3.97378552 -0.87215351 0 0 Z " fill="#A0778A" transform="translate(56,82)"/>
<path d="M0 0 C0.66 0.66 1.32 1.32 2 2 C1.05125 1.938125 0.1025 1.87625 -0.875 1.8125 C-2.421875 1.9053125 -2.421875 1.9053125 -4 2 C-4.99 3.485 -4.99 3.485 -6 5 C-6.66 5 -7.32 5 -8 5 C-8 5.66 -8 6.32 -8 7 C-7.34 7.33 -6.68 7.66 -6 8 C-6.61875 8.28875 -7.2375 8.5775 -7.875 8.875 C-10.13325765 9.93720042 -10.13325765 9.93720042 -12 12 C-11.49135273 7.62563349 -10.57073772 4.59903281 -8 1 C-5.23749964 -0.38125018 -3.05268901 -0.19079306 0 0 Z " fill="#F0E1DB" transform="translate(53,87)"/>
<path d="M0 0 C1.4049404 3.89060419 0.69513239 7.23092362 0.0625 11.25 C-0.13214844 12.51328125 -0.32679687 13.7765625 -0.52734375 15.078125 C-0.68332031 16.04234375 -0.83929688 17.0065625 -1 18 C-1.69867188 17.96519531 -2.39734375 17.93039063 -3.1171875 17.89453125 C-4.02726562 17.86746094 -4.93734375 17.84039062 -5.875 17.8125 C-6.77992187 17.77769531 -7.68484375 17.74289063 -8.6171875 17.70703125 C-9.40351563 17.80371094 -10.18984375 17.90039062 -11 18 C-11.66 18.99 -12.32 19.98 -13 21 C-12.67 19.35 -12.34 17.7 -12 16 C-9.03 16 -6.06 16 -3 16 C-2.86722656 15.09636719 -2.73445313 14.19273437 -2.59765625 13.26171875 C-2.33275391 11.49248047 -2.33275391 11.49248047 -2.0625 9.6875 C-1.80146484 7.92986328 -1.80146484 7.92986328 -1.53515625 6.13671875 C-1 3 -1 3 0 0 Z " fill="#CE9FBA" transform="translate(35,133)"/>
<path d="M0 0 C2.0625 2.0625 2.0625 2.0625 4 5 C4 8.6875 4 8.6875 3 12 C0.9375 13.4375 0.9375 13.4375 -1 14 C-2.59789351 9.04653013 -1.28306814 4.86717585 0 0 Z " fill="#42121D" transform="translate(36,132)"/>
<path d="M0 0 C2.0625 0.4375 2.0625 0.4375 4 1 C-10.63185606 8.57617843 -10.63185606 8.57617843 -16 7 C-14.92878906 6.57847656 -13.85757813 6.15695313 -12.75390625 5.72265625 C-11.35671698 5.16940681 -9.95958449 4.61601398 -8.5625 4.0625 C-7.50192383 3.64581055 -7.50192383 3.64581055 -6.41992188 3.22070312 C-2.95326119 2.03777966 -2.95326119 2.03777966 0 0 Z " fill="#F2E5DF" transform="translate(129,178)"/>
<path d="M0 0 C2.375 -0.125 2.375 -0.125 5 0 C5.66 0.66 6.32 1.32 7 2 C7 1.34 7 0.68 7 0 C9.97 0.495 9.97 0.495 13 1 C10.25 4.875 10.25 4.875 8 6 C6.0546875 5.0390625 6.0546875 5.0390625 3.875 3.625 C3.15054688 3.16351563 2.42609375 2.70203125 1.6796875 2.2265625 C1.12539063 1.82179687 0.57109375 1.41703125 0 1 C0 0.67 0 0.34 0 0 Z " fill="#EDE7E5" transform="translate(48,176)"/>
<path d="M0 0 C1.32 0 2.64 0 4 0 C3.66753345 3.07531556 3.36895244 4.61832506 1.1875 6.875 C-1 8 -1 8 -3.25 7.6875 C-3.8275 7.460625 -4.405 7.23375 -5 7 C-3.64641403 4.29282805 -2.0507093 2.22648438 0 0 Z " fill="#411916" transform="translate(124,152)"/>
<path d="M0 0 C1.2065625 0.0309375 1.2065625 0.0309375 2.4375 0.0625 C1.4475 0.5575 1.4475 0.5575 0.4375 1.0625 C0.4375 4.0325 0.4375 7.0025 0.4375 10.0625 C-0.5525 10.3925 -1.5425 10.7225 -2.5625 11.0625 C-2.5625 9.7425 -2.5625 8.4225 -2.5625 7.0625 C-3.2225 6.7325 -3.8825 6.4025 -4.5625 6.0625 C-3.48963568 0.08511307 -3.48963568 0.08511307 0 0 Z " fill="#F0E6E3" transform="translate(116.5625,147.9375)"/>
<path d="M0 0 C-3.625 3 -3.625 3 -7 3 C-6.34 3.66 -5.68 4.32 -5 5 C-5.99 5 -6.98 5 -8 5 C-8.33 5.66 -8.66 6.32 -9 7 C-9.66 6.01 -10.32 5.02 -11 4 C-12.32 4 -13.64 4 -15 4 C-12.60939149 2.40626099 -10.69171821 1.34702924 -8.0625 0.3125 C-7.39347656 0.04050781 -6.72445312 -0.23148437 -6.03515625 -0.51171875 C-3.67169662 -1.0787676 -2.2807201 -0.76024003 0 0 Z " fill="#F4EDEA" transform="translate(76,105)"/>
<path d="M0 0 C-0.33 1.32 -0.66 2.64 -1 4 C-3.76276177 3.47731534 -6.3260876 2.89130413 -9 2 C-9 2.66 -9 3.32 -9 4 C-10.65 4 -12.3 4 -14 4 C-12 1 -12 1 -9.8125 0.3125 C-6.52303184 -0.05299646 -3.30703016 -0.06484373 0 0 Z " fill="#370D0D" transform="translate(113,187)"/>
<path d="M0 0 C1.32 1.32 2.64 2.64 4 4 C3.67 4.33 3.34 4.66 3 5 C3.99 5.66 4.98 6.32 6 7 C5.67 8.32 5.34 9.64 5 11 C4.67 9.68 4.34 8.36 4 7 C1.03 7 -1.94 7 -5 7 C-4.67 6.34 -4.34 5.68 -4 5 C-1.9375 4.375 -1.9375 4.375 0 4 C-0.33 3.34 -0.66 2.68 -1 2 C-0.67 1.34 -0.34 0.68 0 0 Z " fill="#EFD8E4" transform="translate(57,156)"/>
<path d="M0 0 C0.33 0 0.66 0 1 0 C1.0809313 2.60478883 1.14045434 5.20706653 1.1875 7.8125 C1.21263672 8.55048828 1.23777344 9.28847656 1.26367188 10.04882812 C1.33834499 15.54974762 1.33834499 15.54974762 -0.51171875 18.01171875 C-1.24841797 18.50091797 -1.24841797 18.50091797 -2 19 C-1.85761163 16.95809019 -1.71092972 14.91647955 -1.5625 12.875 C-1.48128906 11.73804687 -1.40007813 10.60109375 -1.31640625 9.4296875 C-1.02269035 6.2459522 -0.56875687 3.14489093 0 0 Z " fill="#2F0905" transform="translate(39,98)"/>
<path d="M0 0 C2.64 1.98 5.28 3.96 8 6 C7.67 7.32 7.34 8.64 7 10 C6.01 9.67 5.02 9.34 4 9 C4 8.34 4 7.68 4 7 C3.01 6.319375 3.01 6.319375 2 5.625 C1.34 5.08875 0.68 4.5525 0 4 C0 2.68 0 1.36 0 0 Z " fill="#380C0F" transform="translate(44,173)"/>
<path d="M0 0 C1.875 0.5625 1.875 0.5625 4 2 C5.25 5.625 5.25 5.625 6 9 C4.35 9 2.7 9 1 9 C-0.0730756 5.7807732 0.20053275 5.09793558 1 2 C0.67 1.34 0.34 0.68 0 0 Z " fill="#623743" transform="translate(140,83)"/>
<path d="M0 0 C0.66 0 1.32 0 2 0 C2 2.31 2 4.62 2 7 C-0.31 7 -2.62 7 -5 7 C-5.33 6.01 -5.66 5.02 -6 4 C-2.25 2.875 -2.25 2.875 0 4 C0 2.68 0 1.36 0 0 Z " fill="#F9F1EE" transform="translate(87,153)"/>
<path d="M0 0 C1.32 0 2.64 0 4 0 C4 1.98 4 3.96 4 6 C3.01 6.33 2.02 6.66 1 7 C0.67 7.66 0.34 8.32 0 9 C0 6.03 0 3.06 0 0 Z " fill="#300E0B" transform="translate(90,152)"/>
<path d="M0 0 C0.33 0 0.66 0 1 0 C1.93838047 6.89836454 2.13645572 12.33928512 0 19 C-0.33 19 -0.66 19 -1 19 C-1.12086218 12.56744599 -0.82351864 6.38226945 0 0 Z " fill="#380404" transform="translate(145,101)"/>
<path d="M0 0 C-0.66 0.66 -1.32 1.32 -2 2 C-1.34 2.66 -0.68 3.32 0 4 C-2.31 4.33 -4.62 4.66 -7 5 C-6.67 3.68 -6.34 2.36 -6 1 C-7.65 1.33 -9.3 1.66 -11 2 C-7.374967 -1.625033 -4.81746234 -1.01907857 0 0 Z " fill="#552823" transform="translate(77,100)"/>
<path d="M0 0 C3.25 -0.3125 3.25 -0.3125 7 0 C9.4375 2.5 9.4375 2.5 11 5 C10.34 5.66 9.68 6.32 9 7 C8.01 6.67 7.02 6.34 6 6 C6 5.01 6 4.02 6 3 C5.34 3 4.68 3 4 3 C4 2.34 4 1.68 4 1 C2.68 0.67 1.36 0.34 0 0 Z " fill="#F0E1DD" transform="translate(131,87)"/>
<path d="M0 0 C3.14624993 -0.26218749 4.61837017 -0.24754367 7.3125 1.5 C8.1478125 2.2425 8.1478125 2.2425 9 3 C8.67 3.99 8.34 4.98 8 6 C5.69 5.34 3.38 4.68 1 4 C0.67 2.68 0.34 1.36 0 0 Z " fill="#3D0603" transform="translate(59,152)"/>
<path d="M0 0 C2.64 0 5.28 0 8 0 C8.33 0.99 8.66 1.98 9 3 C6.1875 3.625 6.1875 3.625 3 4 C2.01 3.34 1.02 2.68 0 2 C0 1.34 0 0.68 0 0 Z " fill="#4B2522" transform="translate(58,156)"/>
<path d="M0 0 C1.32 0.33 2.64 0.66 4 1 C4.33 3.97 4.66 6.94 5 10 C4.34 9.01 3.68 8.02 3 7 C2.34 7.66 1.68 8.32 1 9 C0.67 6.03 0.34 3.06 0 0 Z " fill="#320909" transform="translate(145,137)"/>
<path d="M0 0 C2.97 0.33 5.94 0.66 9 1 C8.67 1.66 8.34 2.32 8 3 C4.01624339 4.17169312 0.12560776 4.08089427 -4 4 C-2.68 3.34 -1.36 2.68 0 2 C0 1.34 0 0.68 0 0 Z " fill="#542329" transform="translate(74,188)"/>
<path d="M0 0 C3.125 0.375 3.125 0.375 6 1 C6 1.99 6 2.98 6 4 C4.25 4.6875 4.25 4.6875 2 5 C-0.25 3.5625 -0.25 3.5625 -2 2 C-1.34 1.34 -0.68 0.68 0 0 Z " fill="#381010" transform="translate(116,102)"/>
<path d="M0 0 C0.66 0.99 1.32 1.98 2 3 C1.67 3.66 1.34 4.32 1 5 C2.65 5.33 4.3 5.66 6 6 C2.52128379 7.15957207 1.65780355 6.77456651 -1.6875 5.5625 C-2.49574219 5.27503906 -3.30398437 4.98757812 -4.13671875 4.69140625 C-4.75160156 4.46324219 -5.36648437 4.23507813 -6 4 C-2.25 2 -2.25 2 0 2 C0 1.34 0 0.68 0 0 Z " fill="#825065" transform="translate(62,184)"/>
<path d="M0 0 C4.75 0.875 4.75 0.875 7 2 C7 2.66 7 3.32 7 4 C5.02 4.33 3.04 4.66 1 5 C0.67 3.35 0.34 1.7 0 0 Z " fill="#3B0D0F" transform="translate(55,182)"/>
<path d="M0 0 C3.63 0 7.26 0 11 0 C11 1.32 11 2.64 11 4 C8 3 8 3 7 2 C5.67405895 1.63837971 4.34061543 1.30271961 3 1 C3 1.66 3 2.32 3 3 C2.01 3 1.02 3 0 3 C0 2.01 0 1.02 0 0 Z " fill="#E9CAD9" transform="translate(50,163)"/>
<path d="M0 0 C0.66 0 1.32 0 2 0 C2.33 0.66 2.66 1.32 3 2 C3.99 2.66 4.98 3.32 6 4 C-0.625 7.125 -0.625 7.125 -4 6 C-3.34 6 -2.68 6 -2 6 C-2 5.34 -2 4.68 -2 4 C-1.01 4 -0.02 4 1 4 C0.67 2.68 0.34 1.36 0 0 Z " fill="#724555" transform="translate(126,182)"/>
<path d="M0 0 C0.66 0.66 1.32 1.32 2 2 C0.9375 3.5625 0.9375 3.5625 -1 5 C-4.6875 4.6875 -4.6875 4.6875 -8 4 C-7.67 3.34 -7.34 2.68 -7 2 C-4.6859378 1.26924352 -2.35171131 0.59861742 0 0 Z " fill="#3B0B0B" transform="translate(71,100)"/>
<path d="M0 0 C1.65 0.33 3.3 0.66 5 1 C5 1.99 5 2.98 5 4 C2.36 4 -0.28 4 -3 4 C-2.67 3.34 -2.34 2.68 -2 2 C-1.34 2 -0.68 2 0 2 C0 1.34 0 0.68 0 0 Z " fill="#390B09" transform="translate(77,99)"/>
<path d="M0 0 C1.32 0.33 2.64 0.66 4 1 C3 3 3 3 1 5 C-1.625 5.125 -1.625 5.125 -4 5 C-2.68 3.35 -1.36 1.7 0 0 Z " fill="#320A0A" transform="translate(139,173)"/>
<path d="M0 0 C1.98 0 3.96 0 6 0 C6 1.32 6 2.64 6 4 C2.86650268 5.04449911 2.01031744 4.93423645 -1 4 C-0.67 3.34 -0.34 2.68 0 2 C0.66 2 1.32 2 2 2 C1.34 1.34 0.68 0.68 0 0 Z " fill="#3E1A1A" transform="translate(96,160)"/>
<path d="M0 0 C3.53600465 1.91135386 5.78972846 3.62642766 8 7 C5.125 6.3125 5.125 6.3125 2 5 C0.625 2.375 0.625 2.375 0 0 Z " fill="#F7E9E5" transform="translate(128,112)"/>
<path d="M0 0 C1.27875 0.28875 2.5575 0.5775 3.875 0.875 C4.95394531 1.11863281 4.95394531 1.11863281 6.0546875 1.3671875 C8 2 8 2 10 4 C8.3125 4.6875 8.3125 4.6875 6 5 C1.36923077 2.73846154 1.36923077 2.73846154 0 0 Z " fill="#E5DBD4" transform="translate(110,104)"/>
<path d="M0 0 C-0.33 1.32 -0.66 2.64 -1 4 C-1.969375 4.12375 -2.93875 4.2475 -3.9375 4.375 C-5.4534375 4.684375 -5.4534375 4.684375 -7 5 C-7.33 5.66 -7.66 6.32 -8 7 C-8 6.01 -8 5.02 -8 4 C-2.74285714 0 -2.74285714 0 0 0 Z " fill="#EEE1DD" transform="translate(131,88)"/>
<path d="M0 0 C0.33 0 0.66 0 1 0 C1 1.98 1 3.96 1 6 C1.66 6 2.32 6 3 6 C2.67 7.32 2.34 8.64 2 10 C1.01 10 0.02 10 -1 10 C-0.67 6.7 -0.34 3.4 0 0 Z " fill="#390507" transform="translate(147,151)"/>
<path d="M0 0 C0.99 0.99 1.98 1.98 3 3 C-0.21451269 4.60725635 -3.43612536 4.05748185 -7 4 C-7.33 4.66 -7.66 5.32 -8 6 C-8 3 -8 3 -7 2 C-4.66702567 1.95907063 -2.33294775 1.95758277 0 2 C0 1.34 0 0.68 0 0 Z " fill="#E8D9D8" transform="translate(65,145)"/>
<path d="M0 0 C4.875 2.75 4.875 2.75 6 5 C4.02 5.66 2.04 6.32 0 7 C-0.33 6.34 -0.66 5.68 -1 5 C-0.01 4.01 0.98 3.02 2 2 C1.34 2 0.68 2 0 2 C0 1.34 0 0.68 0 0 Z " fill="#6F3D54" transform="translate(69,92)"/>
<path d="M0 0 C1.65 0 3.3 0 5 0 C5 0.99 5 1.98 5 3 C4.01 3.66 3.02 4.32 2 5 C1.01 4.67 0.02 4.34 -1 4 C-0.67 2.68 -0.34 1.36 0 0 Z " fill="#370E19" transform="translate(44,83)"/>
<path d="M0 0 C2.97 0 5.94 0 9 0 C8.01 0.495 8.01 0.495 7 1 C7.33 1.99 7.66 2.98 8 4 C6.35 4 4.7 4 3 4 C3.33 3.34 3.66 2.68 4 2 C2.68 1.34 1.36 0.68 0 0 Z " fill="#34060C" transform="translate(67,187)"/>
<path d="M0 0 C-1.15173355 2.46800047 -2.04783565 4.04783565 -4 6 C-4.66 5.34 -5.32 4.68 -6 4 C-5.67 3.01 -5.34 2.02 -5 1 C-3 0 -3 0 0 0 Z " fill="#F6EAE7" transform="translate(142,168)"/>
<path d="M0 0 C2.05078125 0.03255208 4.1015625 0.06510417 6.15234375 0.09765625 C6.15234375 0.42765625 6.15234375 0.75765625 6.15234375 1.09765625 C4.17234375 1.42765625 2.19234375 1.75765625 0.15234375 2.09765625 C-0.17765625 3.41765625 -0.50765625 4.73765625 -0.84765625 6.09765625 C-1.50765625 6.09765625 -2.16765625 6.09765625 -2.84765625 6.09765625 C-2.89037725 4.4315372 -2.88829457 2.7638274 -2.84765625 1.09765625 C-1.84765625 0.09765625 -1.84765625 0.09765625 0 0 Z " fill="#D1AAC1" transform="translate(152.84765625,154.90234375)"/>
<path d="M0 0 C1.98 0 3.96 0 6 0 C6 1.32 6 2.64 6 4 C4.35 4 2.7 4 1 4 C0.67 2.68 0.34 1.36 0 0 Z " fill="#330519" transform="translate(150,151)"/>
<path d="M0 0 C0.33 0 0.66 0 1 0 C1.25 7.625 1.25 7.625 -1 11 C-1.66 10.01 -2.32 9.02 -3 8 C-2.5390625 5.95703125 -2.5390625 5.95703125 -1.625 3.8125 C-1.32851562 3.09707031 -1.03203125 2.38164063 -0.7265625 1.64453125 C-0.36691406 0.83048828 -0.36691406 0.83048828 0 0 Z " fill="#EFDEDB" transform="translate(143,108)"/>
<path d="M0 0 C1.45792884 -0.05399736 2.91642712 -0.09279177 4.375 -0.125 C5.18710938 -0.14820312 5.99921875 -0.17140625 6.8359375 -0.1953125 C9 0 9 0 11 2 C10.625 4.125 10.625 4.125 10 6 C9.649375 5.360625 9.29875 4.72125 8.9375 4.0625 C6.22815794 1.17836168 3.84141089 1.2899178 0 1 C0 0.67 0 0.34 0 0 Z " fill="#320310" transform="translate(131,83)"/>
<path d="M0 0 C1.65 0 3.3 0 5 0 C4.67 1.32 4.34 2.64 4 4 C2.68 3.67 1.36 3.34 0 3 C0 2.01 0 1.02 0 0 Z " fill="#381211" transform="translate(128,181)"/>
<path d="M0 0 C2.21736634 1.10868317 4.03617993 2.49440461 6 4 C5.34 4 4.68 4 4 4 C4 4.66 4 5.32 4 6 C2.0625 5.6875 2.0625 5.6875 0 5 C-0.33 4.01 -0.66 3.02 -1 2 C-0.67 1.34 -0.34 0.68 0 0 Z " fill="#895E7D" transform="translate(23,163)"/>
<path d="M0 0 C1.0625 1.8125 1.0625 1.8125 2 4 C1.67 4.99 1.34 5.98 1 7 C-1.2477975 4.94766315 -2.0022242 3.99332739 -3 1 C-2.01 0.67 -1.02 0.34 0 0 Z " fill="#F4E4E1" transform="translate(43,164)"/>
<path d="M0 0 C0.928125 0.5259375 0.928125 0.5259375 1.875 1.0625 C2.57625 1.371875 3.2775 1.68125 4 2 C4.66 1.67 5.32 1.34 6 1 C6 2.65 6 4.3 6 6 C4.02 5.01 2.04 4.02 0 3 C0 2.01 0 1.02 0 0 Z " fill="#4B1814" transform="translate(63,150)"/>
<path d="M0 0 C4.455 0.99 4.455 0.99 9 2 C6.07735566 3.46132217 4.07536854 4.34099246 1 5 C0.67 3.35 0.34 1.7 0 0 Z " fill="#512626" transform="translate(61,103)"/>
<path d="M0 0 C1.65 0.33 3.3 0.66 5 1 C3.68 2.32 2.36 3.64 1 5 C1 4.34 1 3.68 1 3 C0.34 3 -0.32 3 -1 3 C-0.67 2.01 -0.34 1.02 0 0 Z " fill="#441919" transform="translate(115,93)"/>
<path d="M0 0 C3.875 1.75 3.875 1.75 5 4 C3.35 3.67 1.7 3.34 0 3 C-0.33 3.99 -0.66 4.98 -1 6 C-1.66 5.34 -2.32 4.68 -3 4 C-2.34 4 -1.68 4 -1 4 C-0.67 2.68 -0.34 1.36 0 0 Z " fill="#764C5F" transform="translate(64,88)"/>
<path d="M0 0 C1.32 1.32 2.64 2.64 4 4 C2 6 2 6 -1.125 6.125 C-2.548125 6.063125 -2.548125 6.063125 -4 6 C-2.68 5.34 -1.36 4.68 0 4 C-0.33 3.34 -0.66 2.68 -1 2 C-0.67 1.34 -0.34 0.68 0 0 Z " fill="#F3E4E8" transform="translate(57,156)"/>
<path d="M0 0 C0.99 0.33 1.98 0.66 3 1 C1.84826645 3.46800047 0.95216435 5.04783565 -1 7 C-1.5534764 4.92446352 -2 3.15634036 -2 1 C-1.34 0.67 -0.68 0.34 0 0 Z " fill="#EEEEED" transform="translate(69,144)"/>
<path d="M0 0 C-1.32 0.99 -2.64 1.98 -4 3 C-4.33 2.67 -4.66 2.34 -5 2 C-6.66617115 1.95936168 -8.33388095 1.957279 -10 2 C-3.75 -1.125 -3.75 -1.125 0 0 Z " fill="#EFE2DE" transform="translate(76,105)"/>
</svg>
