<?xml version="1.0" encoding="UTF-8"?>
<svg version="1.1" xmlns="http://www.w3.org/2000/svg" width="183" height="275">
<path d="M0 0 C60.39 0 120.78 0 183 0 C183 90.75 183 181.5 183 275 C122.61 275 62.22 275 0 275 C0 184.25 0 93.5 0 0 Z " fill="#E9C3FE" transform="translate(0,0)"/>
<path d="M0 0 C6.2789546 5.1692719 9.58835511 10.35151706 12.21484375 17.99609375 C12.53195313 18.8365625 12.8490625 19.67703125 13.17578125 20.54296875 C16.68740498 31.17449012 17.05684575 44.28360648 12.5234375 54.63671875 C6.44372607 65.59834771 -3.63382875 70.08340782 -15.3359375 73.453125 C-35.48371455 77.91969758 -61.64898668 77.27298924 -79.59765625 66.24609375 C-86.09734625 61.61840749 -91.27893105 54.96290475 -92.78515625 46.99609375 C-94.01494759 33.39247592 -92.49243352 17.10231476 -83.78515625 5.99609375 C-63.45176729 -16.11243234 -23.68877623 -17.04395822 0 0 Z " fill="#FCFBFB" transform="translate(130.78515625,113.00390625)"/>
<path d="M0 0 C8.96382192 2.66532246 16.82822885 9.1758851 23.3515625 15.69921875 C28.40137994 16.38847777 33.50942285 16.438742 38.6015625 16.51171875 C39.33497864 16.52278656 40.06839478 16.53385437 40.82403564 16.54525757 C50.56488079 16.60705782 58.03483078 16.10661572 65.27636719 8.98828125 C66.63960325 7.56320578 67.99580637 6.13141217 69.3515625 4.69921875 C74.2268183 1.51207091 79.39838116 -1.51847743 85.3515625 -0.30078125 C90.9849929 2.40326534 93.20570358 6.06496354 95.3515625 11.69921875 C96.62436712 15.50088517 96.54276819 19.3563481 96.5390625 23.32421875 C96.53970703 24.03626465 96.54035156 24.74831055 96.54101562 25.48193359 C96.49225293 30.37261023 95.92161643 34.88927411 94.8046875 39.66015625 C93.6308523 44.94241463 94.62152323 48.70132753 96.3515625 53.69921875 C97.57165135 58.8186456 98.3515625 63.40992536 98.3515625 68.69921875 C101.6515625 68.36921875 104.9515625 68.03921875 108.3515625 67.69921875 C108.0215625 69.34921875 107.6915625 70.99921875 107.3515625 72.69921875 C102.8965625 73.19421875 102.8965625 73.19421875 98.3515625 73.69921875 C98.0215625 75.34921875 97.6915625 76.99921875 97.3515625 78.69921875 C100.6515625 79.68921875 103.9515625 80.67921875 107.3515625 81.69921875 C107.3515625 83.01921875 107.3515625 84.33921875 107.3515625 85.69921875 C98.78013393 84.69921875 98.78013393 84.69921875 95.3515625 83.69921875 C95.1040625 84.56546875 94.8565625 85.43171875 94.6015625 86.32421875 C90.98290119 96.0946043 83.35872275 101.23368736 74.2578125 105.6015625 C55.40746117 112.72111724 31.64496809 112.86037088 12.3515625 107.69921875 C11.25972656 107.40917969 10.16789062 107.11914062 9.04296875 106.8203125 C-1.1085189 103.79134178 -8.46379887 98.33372809 -14.6484375 89.69921875 C-16.0859375 86.19921875 -16.0859375 86.19921875 -16.6484375 83.69921875 C-22.5884375 84.68921875 -22.5884375 84.68921875 -28.6484375 85.69921875 C-28.3184375 84.04921875 -27.9884375 82.39921875 -27.6484375 80.69921875 C-23.1934375 79.70921875 -23.1934375 79.70921875 -18.6484375 78.69921875 C-18.6484375 77.04921875 -18.6484375 75.39921875 -18.6484375 73.69921875 C-21.9484375 73.36921875 -25.2484375 73.03921875 -28.6484375 72.69921875 C-29.1434375 70.22421875 -29.1434375 70.22421875 -29.6484375 67.69921875 C-26.0184375 68.02921875 -22.3884375 68.35921875 -18.6484375 68.69921875 C-18.7103125 67.31734375 -18.7721875 65.93546875 -18.8359375 64.51171875 C-18.8595137 58.97917084 -17.65300807 54.03476113 -16.3203125 48.69140625 C-15.39684881 44.57877146 -15.05638882 40.93607162 -16.14916992 36.80737305 C-17.10366466 32.77702486 -16.91795312 28.63535403 -16.9609375 24.51171875 C-16.98994141 23.60357422 -17.01894531 22.69542969 -17.04882812 21.75976562 C-17.11512947 14.63492151 -15.70402795 8.77783919 -11.37744141 3.00268555 C-7.80068531 -0.60427756 -4.70889819 -0.85831087 0 0 Z M-6.6484375 37.69921875 C-14.59473642 48.08358666 -15.95647372 65.15825295 -14.6484375 77.69921875 C-13.03484634 84.89831779 -9.38569519 91.03407487 -3.6484375 95.69921875 C15.38398565 107.05149938 39.61324204 108.79086609 61.2265625 104.51171875 C71.95371239 101.65734099 82.81836056 98.04300589 88.9140625 88.16796875 C94.94515739 76.51698998 95.10204161 63.57034557 91.1640625 51.13671875 C87.08023675 39.11107518 81.04451852 31.61521623 69.8515625 25.44921875 C45.29655187 13.94098068 12.08219125 17.45361267 -6.6484375 37.69921875 Z " fill="#421214" transform="translate(52.6484375,82.30078125)"/>
<path d="M0 0 C0.33 0 0.66 0 1 0 C1.33 6.93 1.66 13.86 2 21 C3.98 20.67 5.96 20.34 8 20 C7.07055234 22.86579697 6.10860465 25.71157453 5.046875 28.53125 C0.4287379 40.80033065 -3.0866044 54.72337802 1.625 67.5625 C2.72443414 69.88987406 2.72443414 69.88987406 4 72 C4.54914062 72.94746094 4.54914062 72.94746094 5.109375 73.9140625 C10.68448907 81.72610505 22.00852928 85.89277303 31 88 C52.05187487 91.17575942 76.48067391 91.14238036 95.125 79.6953125 C100.19818063 75.82482556 102.47470326 70.73157237 105 65 C105.65940561 63.66306079 106.32355667 62.32840003 107 61 C107 61.66 107 62.32 107 63 C107.55171875 62.79503906 108.1034375 62.59007812 108.671875 62.37890625 C111.74432361 61.87886008 113.41615428 62.70701436 116.25 63.9375 C117.14203125 64.31777344 118.0340625 64.69804687 118.953125 65.08984375 C119.96632812 65.54037109 119.96632812 65.54037109 121 66 C121 67.32 121 68.64 121 70 C112.42857143 69 112.42857143 69 109 68 C108.7525 68.86625 108.505 69.7325 108.25 70.625 C104.63133869 80.39538555 97.00716025 85.53446861 87.90625 89.90234375 C69.05589867 97.02189849 45.29340559 97.16115213 26 92 C24.90816406 91.70996094 23.81632812 91.41992188 22.69140625 91.12109375 C12.5399186 88.09212303 5.18463863 82.63450934 -1 74 C-2.4375 70.5 -2.4375 70.5 -3 68 C-8.94 68.99 -8.94 68.99 -15 70 C-14.67 68.35 -14.34 66.7 -14 65 C-11.03 64.34 -8.06 63.68 -5 63 C-5 61.35 -5 59.7 -5 58 C-8.3 57.67 -11.6 57.34 -15 57 C-15.33 55.35 -15.66 53.7 -16 52 C-12.37 52.33 -8.74 52.66 -5 53 C-5.061875 51.618125 -5.12375 50.23625 -5.1875 48.8125 C-5.2110762 43.27995209 -4.00457057 38.33554238 -2.671875 32.9921875 C-1.76662884 28.96068424 -1.34601944 25.28893198 -2.5 21.25 C-3.18469729 18.16886222 -3.20960839 15.21641159 -3.25 12.0625 C-3.27578125 10.85722656 -3.3015625 9.65195313 -3.328125 8.41015625 C-2.97806505 4.77203315 -2.17743538 2.8977486 0 0 Z " fill="#431314" transform="translate(39,98)"/>
<path d="M0 0 C3.87650239 3.56219138 5.71964024 7.87835027 6.19067383 13.12304688 C6.26769002 15.48119728 6.27296085 17.8282722 6.25 20.1875 C6.25773437 20.99380859 6.26546875 21.80011719 6.2734375 22.63085938 C6.27085937 23.40623047 6.26828125 24.18160156 6.265625 24.98046875 C6.26336914 25.68067139 6.26111328 26.38087402 6.25878906 27.10229492 C6 29 6 29 4 32 C3.236875 30.989375 2.47375 29.97875 1.6875 28.9375 C-5.07854229 21.09143218 -14.28846831 17.02428743 -24 14 C-22.71478967 10.144369 -21.04158971 9.32347509 -17.75 7 C-16.79609375 6.319375 -15.8421875 5.63875 -14.859375 4.9375 C-6.2343071 -0.90680831 -6.2343071 -0.90680831 0 0 Z " fill="#FBF6F7" transform="translate(138,87)"/>
<path d="M0 0 C6.39917429 3.08852709 11.7769909 7.2311656 17 12 C15.42947718 15.14104565 12.70962058 15.43588514 9.5 16.6875 C1.39675258 20.00007036 -5.84800153 23.94023826 -10 32 C-10.66 32 -11.32 32 -12 32 C-13.75763049 22.55273613 -14.44446248 12.73019417 -10 4 C-7.04835165 -0.0712391 -4.95697486 -0.91795831 0 0 Z " fill="#F7EFF1" transform="translate(53,87)"/>
<path d="M0 0 C1.0725 0.350625 2.145 0.70125 3.25 1.0625 C6.69992133 2.2626249 6.69992133 2.2626249 8.8828125 1.44140625 C11.90018101 0.81232389 13.76985959 1.78266396 16.625 2.875 C22.12225179 4.83348037 27.18604587 5.74274539 33 6 C32.01 6.66 31.02 7.32 30 8 C30 8.66 30 9.32 30 10 C40.23 10 50.46 10 61 10 C61 10.33 61 10.66 61 11 C42.12105281 13.68770316 18.82412312 13.47557221 2.25 2.8125 C1.5075 2.214375 0.765 1.61625 0 1 C0 0.67 0 0.34 0 0 Z " fill="#46111D" transform="translate(47,181)"/>
<path d="M0 0 C5.2576691 2.33674182 6.99082821 5.86873284 9 11 C10.29518096 14.83475146 10.19120135 18.7451384 10.1875 22.75 C10.18814453 23.46285156 10.18878906 24.17570312 10.18945312 24.91015625 C10.13882433 29.94542014 9.58649873 34.2405038 8 39 C7.67 39 7.34 39 7 39 C6.93941406 38.28972656 6.87882813 37.57945313 6.81640625 36.84765625 C6.73261719 35.92855469 6.64882812 35.00945312 6.5625 34.0625 C6.48128906 33.14597656 6.40007812 32.22945312 6.31640625 31.28515625 C6.23955024 29.03840268 6.23955024 29.03840268 5 28 C4.83995382 25.98163988 4.7225184 23.9598458 4.625 21.9375 C4.19133889 15.67350623 3.64068154 9.64068154 -1 5 C-2.31747324 4.30251417 -3.64914193 3.63040043 -5 3 C-4.01 3 -3.02 3 -2 3 C-1.67 2.34 -1.34 1.68 -1 1 C-0.67 0.67 -0.34 0.34 0 0 Z " fill="#48161D" transform="translate(139,83)"/>
<path d="M0 0 C3.51188925 1.8534971 5.05368543 4.52664669 6.25 8.1875 C6.5581237 11.55240638 6.49390394 14.82027062 6.25 18.1875 C5.71632812 17.81238281 5.18265625 17.43726562 4.6328125 17.05078125 C-0.94028366 13.2228934 -6.63822365 10.07113561 -12.75 7.1875 C-12.09 6.8575 -11.43 6.5275 -10.75 6.1875 C-10.75 5.5275 -10.75 4.8675 -10.75 4.1875 C-3.97614177 0.27110058 -3.97614177 0.27110058 0 0 Z " fill="#F1C8D9" transform="translate(132.75,95.8125)"/>
<path d="M0 0 C0.33 0 0.66 0 1 0 C1.33 6.93 1.66 13.86 2 21 C3.98 20.67 5.96 20.34 8 20 C6.68938409 24.23429756 5.05643741 28.07407404 3 32 C1.68 32 0.36 32 -1 32 C-5.20499295 9.39816288 -5.20499295 9.39816288 -1.54296875 2.09375 C-1.03378906 1.4028125 -0.52460937 0.711875 0 0 Z " fill="#421010" transform="translate(39,98)"/>
<path d="M0 0 C5.06853506 0.49050339 6.97784251 2.19364694 10.875 5.375 C8.28527975 7.10148016 5.67113425 8.7171265 3 10.3125 C2.15695313 10.81652344 1.31390625 11.32054688 0.4453125 11.83984375 C-0.82699219 12.59974609 -0.82699219 12.59974609 -2.125 13.375 C-3.79187034 14.37466047 -5.4585969 15.37456086 -7.125 16.375 C-7.47463286 10.54778563 -7.32139756 6.48923609 -4.125 1.375 C-3.125 0.375 -3.125 0.375 0 0 Z " fill="#F1CCDD" transform="translate(53.125,96.625)"/>
<path d="M0 0 C2.4375 2.5 2.4375 2.5 4 5 C3.34 5.66 2.68 6.32 2 7 C1.67 5.68 1.34 4.36 1 3 C-2.04386724 2.91773332 -4.07175348 3.02391783 -7 4 C-6.67 4.99 -6.34 5.98 -6 7 C-9.01887244 10.48331435 -11.56909529 11.79157144 -16 13 C-16 13.66 -16 14.32 -16 15 C-18.64 14.67 -21.28 14.34 -24 14 C-22.71478967 10.144369 -21.04158971 9.32347509 -17.75 7 C-16.79609375 6.319375 -15.8421875 5.63875 -14.859375 4.9375 C-6.2343071 -0.90680831 -6.2343071 -0.90680831 0 0 Z " fill="#F9F5EF" transform="translate(138,87)"/>
<path d="M0 0 C1.67542976 0.28604898 3.34385343 0.61781233 5 1 C5 3.31 5 5.62 5 8 C7.64 8 10.28 8 13 8 C12.625 9.9375 12.625 9.9375 12 12 C8.84150315 13.57924842 5.4634872 13.14316514 2 13.125 C0.89398438 13.13080078 0.89398438 13.13080078 -0.234375 13.13671875 C-5.7466804 13.1266598 -5.7466804 13.1266598 -8 12 C-7.67 10.35 -7.34 8.7 -7 7 C-4.03 7.495 -4.03 7.495 -1 8 C-1.020625 6.865625 -1.04125 5.73125 -1.0625 4.5625 C-1 1 -1 1 0 0 Z " fill="#3D0A07" transform="translate(90,152)"/>
<path d="M0 0 C0 2.33333333 0 4.66666667 0 7 C-0.92619141 7.32871094 -0.92619141 7.32871094 -1.87109375 7.6640625 C-9.83710213 10.64676883 -16.25078889 14.90025977 -23 20 C-24.32 19.34 -25.64 18.68 -27 18 C-20.49750089 8.8068116 -10.13246666 4.25289219 0 0 Z " fill="#3E1111" transform="translate(70,99)"/>
<path d="M0 0 C1.88525391 0.24556641 1.88525391 0.24556641 3.80859375 0.49609375 C9.23638634 1.09918182 14.60720338 1.11185202 20.0625 1.0625 C21.50399414 1.05573242 21.50399414 1.05573242 22.97460938 1.04882812 C25.31647422 1.03717706 27.65820181 1.02082025 30 1 C30.495 2.98 30.495 2.98 31 5 C29.04320312 5.07347656 29.04320312 5.07347656 27.046875 5.1484375 C17.55368302 5.5417165 8.32149718 6.04854835 -1 8 C-1 4.88742431 -0.82638376 2.89234315 0 0 Z " fill="#460909" transform="translate(71,97)"/>
<path d="M0 0 C1.875 1.125 1.875 1.125 3 3 C3.5 6 3.5 6 3 9 C0.8125 10.9375 0.8125 10.9375 -2 12 C-5.4010144 11.76271993 -6.569534 11.430466 -9 9 C-9.3125 5.5 -9.3125 5.5 -9 2 C-5.53076119 -0.31282587 -4.07794425 -0.42478586 0 0 Z " fill="#3A0704" transform="translate(125,148)"/>
<path d="M0 0 C1.875 1.1875 1.875 1.1875 3 3 C3.59636329 6.3225955 3.29109393 7.57455503 1.375 10.375 C-1 12 -1 12 -4.125 11.9375 C-7 11 -7 11 -9 8 C-8.75 4.375 -8.75 4.375 -8 1 C-5.20129973 -0.39935013 -3.09501208 -0.25265405 0 0 Z " fill="#3C0D09" transform="translate(66,148)"/>
<path d="M0 0 C0.66 0.33 1.32 0.66 2 1 C3.14806378 19.82004556 3.14806378 19.82004556 3 29 C2.34 29.33 1.68 29.66 1 30 C0.32815382 27.89748139 -0.33730968 25.79292237 -1 23.6875 C-1.556875 21.92986328 -1.556875 21.92986328 -2.125 20.13671875 C-3 17 -3 17 -3 14 C-2.34 14 -1.68 14 -1 14 C-1.33 12.68 -1.66 11.36 -2 10 C-1.34 9.67 -0.68 9.34 0 9 C0 6.03 0 3.06 0 0 Z " fill="#3D090A" transform="translate(144,111)"/>
<path d="M0 0 C1.32 1.32 2.64 2.64 4 4 C3.01 4 2.02 4 1 4 C1 4.66 1 5.32 1 6 C2.32 6 3.64 6 5 6 C5.042721 7.66611905 5.04063832 9.33382885 5 11 C3.41105928 12.58894072 1.75198576 12.16998411 -0.4375 12.1875 C-1.64212891 12.20876953 -1.64212891 12.20876953 -2.87109375 12.23046875 C-5 12 -5 12 -7 10 C-7 9.01 -7 8.02 -7 7 C-4 5 -4 5 0 5 C-0.33 4.01 -0.66 3.02 -1 2 C-0.67 1.34 -0.34 0.68 0 0 Z " fill="#F1CBDD" transform="translate(57,156)"/>
<path d="M0 0 C0 3 0 3 -1 5 C0.670625 4.9690625 0.670625 4.9690625 2.375 4.9375 C6 5 6 5 8 6 C7.125 9.875 7.125 9.875 6 11 C4.52351124 11.09823996 3.04224583 11.12973519 1.5625 11.125 C0.75941406 11.12757813 -0.04367188 11.13015625 -0.87109375 11.1328125 C-3 11 -3 11 -5 10 C-4.47731534 7.23723823 -3.89130413 4.6739124 -3 2 C-2.01 1.34 -1.02 0.68 0 0 Z " fill="#F0CDDA" transform="translate(126,157)"/>
<path d="M0 0 C3.491933 0.64665426 6.15389899 1.86542424 9 4 C9 5.32 9 6.64 9 8 C15.6 8 22.2 8 29 8 C29 8.33 29 8.66 29 9 C25.50380214 9.37478592 22.00540054 9.66322248 18.5 9.9375 C17.51773438 10.04384766 16.53546875 10.15019531 15.5234375 10.25976562 C11.23196393 10.56016878 8.2273024 10.76371333 4.49609375 8.44189453 C2.52504115 6.71722351 0.72645226 4.96731616 -1 3 C-0.67 2.01 -0.34 1.02 0 0 Z " fill="#F1C8FC" transform="translate(69,89)"/>
<path d="M0 0 C0.33 0.66 0.66 1.32 1 2 C2.32 2 3.64 2 5 2 C4.60444714 4.29540523 4.18286568 6.58633783 3.75 8.875 C3.51796875 10.15117187 3.2859375 11.42734375 3.046875 12.7421875 C2 16 2 16 -0.109375 17.4453125 C-0.73328125 17.62835938 -1.3571875 17.81140625 -2 18 C-3.23940347 13.64156793 -2.66253286 10.54363011 -1.5625 6.1875 C-1.27503906 5.02605469 -0.98757812 3.86460937 -0.69140625 2.66796875 C-0.46324219 1.78753906 -0.23507813 0.90710938 0 0 Z " fill="#46141A" transform="translate(37,128)"/>
<path d="M0 0 C0.58984375 1.890625 0.58984375 1.890625 1 4 C-0.4375 5.75 -0.4375 5.75 -2 7 C-1.01 8.485 -1.01 8.485 0 10 C-3.3 9.01 -6.6 8.02 -10 7 C-10 2 -10 2 -9 1 C-7.48530552 0.76807135 -5.96245438 0.58784762 -4.4375 0.4375 C-3.19806641 0.31181641 -3.19806641 0.31181641 -1.93359375 0.18359375 C-0.97646484 0.09271484 -0.97646484 0.09271484 0 0 Z " fill="#DDB2DC" transform="translate(160,154)"/>
<path d="M0 0 C0 2.33333333 0 4.66666667 0 7 C-6.20514474 9.13619737 -11.42684522 10.36517527 -18 10 C-14.29750507 6.79256559 -10.65686427 4.73638412 -6.1875 2.75 C-4.44533203 1.96882813 -4.44533203 1.96882813 -2.66796875 1.171875 C-1.78753906 0.78515625 -0.90710938 0.3984375 0 0 Z " fill="#4F1B1E" transform="translate(70,99)"/>
<path d="M0 0 C2.31 0.33 4.62 0.66 7 1 C7 2.65 7 4.3 7 6 C6.06027344 6.27263672 6.06027344 6.27263672 5.1015625 6.55078125 C3.87566406 6.92783203 3.87566406 6.92783203 2.625 7.3125 C1.40683594 7.67794922 1.40683594 7.67794922 0.1640625 8.05078125 C-2.33184629 8.91368185 -2.33184629 8.91368185 -4 12 C-4.86172797 9.58716168 -5.08724082 8.30534286 -4.375 5.8125 C-3 4 -3 4 -0.5 3.125 C0.7375 3.063125 0.7375 3.063125 2 3 C2.66 3.66 3.32 4.32 4 5 C4 4.01 4 3.02 4 2 C2.35 2 0.7 2 -1 2 C-0.67 1.34 -0.34 0.68 0 0 Z " fill="#DCB2D8" transform="translate(27,155)"/>
<path d="M0 0 C1.44319692 0.90767102 2.87934106 1.82656106 4.3125 2.75 C5.11300781 3.26046875 5.91351563 3.7709375 6.73828125 4.296875 C9.00368861 6.00277761 10.42684167 7.65808145 12 10 C10 11.375 10 11.375 7 12 C4.05533074 10.32355244 1.54083219 8.23189726 -1 6 C-0.34 5.67 0.32 5.34 1 5 C0.67 3.35 0.34 1.7 0 0 Z " fill="#491920" transform="translate(62,87)"/>
<path d="M0 0 C5.94 0 11.88 0 18 0 C18.33 1.32 18.66 2.64 19 4 C12.4 4 5.8 4 -1 4 C-1 3.67 -1 3.34 -1 3 C0.98 2.67 2.96 2.34 5 2 C3.35 1.67 1.7 1.34 0 1 C0 0.67 0 0.34 0 0 Z " fill="#370405" transform="translate(83,98)"/>
<path d="M0 0 C6.75 -0.125 6.75 -0.125 9 1 C12.14395449 1.02577012 15.27216396 0.97235976 18.4140625 0.87304688 C22.47317746 0.80512861 24.24576035 1.12288017 28 3 C19.09 3 10.18 3 1 3 C0.67 2.01 0.34 1.02 0 0 Z " fill="#3E0705" transform="translate(76,188)"/>
<path d="M0 0 C0.33 1.32 0.66 2.64 1 4 C1.33 4.66 1.66 5.32 2 6 C-1.96 6.66 -5.92 7.32 -10 8 C-9.67 6.35 -9.34 4.7 -9 3 C-6.03 2.01 -3.06 1.02 0 0 Z " fill="#471522" transform="translate(34,160)"/>
<path d="M0 0 C0.33 0 0.66 0 1 0 C1 4.29 1 8.58 1 13 C0.67 12.01 0.34 11.02 0 10 C-0.66 11.32 -1.32 12.64 -2 14 C-2.66 13.01 -3.32 12.02 -4 11 C-5.65 11.33 -7.3 11.66 -9 12 C-9.33 11.01 -9.66 10.02 -10 9 C-7.69 9 -5.38 9 -3 9 C-3 6.69 -3 4.38 -3 2 C-2.67 2.66 -2.34 3.32 -2 4 C-1.34 4 -0.68 4 0 4 C0 2.68 0 1.36 0 0 Z " fill="#3D0804" transform="translate(37,142)"/>
<path d="M0 0 C0.33 0 0.66 0 1 0 C1 5.28 1 10.56 1 16 C0.01 16.33 -0.98 16.66 -2 17 C-3.71005023 11.86984932 -3.87607779 6.86642661 -1.5625 1.9375 C-1.046875 1.298125 -0.53125 0.65875 0 0 Z " fill="#360907" transform="translate(39,98)"/>
<path d="M0 0 C-2.61178947 1.74119298 -5.24839697 3.38249442 -7.9375 5 C-8.79214844 5.515625 -9.64679687 6.03125 -10.52734375 6.5625 C-12.65290258 7.79821193 -14.78672771 8.93187787 -17 10 C-16.67538191 6.9318355 -16.38522664 5.38853331 -14.1796875 3.1640625 C-8.95421573 -0.32548984 -6.13763756 -1.82823246 0 0 Z " fill="#F1C1CD" transform="translate(64,102)"/>
<path d="M0 0 C0.6875 1.8125 0.6875 1.8125 1 4 C-0.4375 5.75 -0.4375 5.75 -2 7 C-1.34 7 -0.68 7 0 7 C0 7.99 0 8.98 0 10 C-1.32 10 -2.64 10 -4 10 C-4 9.01 -4 8.02 -4 7 C-4.33 7.66 -4.66 8.32 -5 9 C-5.66 9 -6.32 9 -7 9 C-6.4140625 2.84765625 -6.4140625 2.84765625 -6 1 C-4 0 -4 0 0 0 Z " fill="#E3BDF2" transform="translate(23,144)"/>
<path d="M0 0 C1.32 0.33 2.64 0.66 4 1 C3.67 2.65 3.34 4.3 3 6 C3.66 6 4.32 6 5 6 C5 5.34 5 4.68 5 4 C5.66 4 6.32 4 7 4 C6.01 6.97 5.02 9.94 4 13 C2.02 11.35 0.04 9.7 -2 8 C-1.34 7.67 -0.68 7.34 0 7 C0 4.69 0 2.38 0 0 Z " fill="#E2BCF3" transform="translate(161,150)"/>
<path d="M0 0 C0.66 0 1.32 0 2 0 C1.34 5.94 0.68 11.88 0 18 C-3.63 17.67 -7.26 17.34 -11 17 C-11 16.67 -11 16.34 -11 16 C-7.7 16 -4.4 16 -1 16 C-1.2475 14.7625 -1.2475 14.7625 -1.5 13.5 C-2.05896045 9.58727683 -2.06807187 5.94816827 -2 2 C-1.34 2 -0.68 2 0 2 C0 1.34 0 0.68 0 0 Z " fill="#D9ABCD" transform="translate(34,133)"/>
<path d="M0 0 C0.33 0 0.66 0 1 0 C1.50604924 2.39469729 2.00499517 4.79051717 2.5 7.1875 C2.64308594 7.86103516 2.78617188 8.53457031 2.93359375 9.22851562 C3.68069842 12.87509793 4.17352282 16.27648957 4 20 C3.71125 19.360625 3.4225 18.72125 3.125 18.0625 C2.17176549 15.84793921 2.17176549 15.84793921 0 15 C0 13.68 0 12.36 0 11 C-0.66 10.67 -1.32 10.34 -2 10 C-1.67 9.67 -1.34 9.34 -1 9 C-1 7.865625 -1 6.73125 -1 5.5625 C-1 2 -1 2 0 0 Z " fill="#4B1C23" transform="translate(147,131)"/>
<path d="M0 0 C0 1.32 0 2.64 0 4 C-5.47332932 5.46845421 -8.11922548 4.44038726 -13 2 C-13 1.67 -13 1.34 -13 1 C-8.61414671 0.29826347 -4.44209357 -0.10834375 0 0 Z " fill="#3B1115" transform="translate(119,186)"/>
<path d="M0 0 C0.66 0 1.32 0 2 0 C3 1 4 2 5 3 C5.99 3.33 6.98 3.66 8 4 C5.36 5.98 2.72 7.96 0 10 C0 9.01 0 8.02 0 7 C-0.66 6.67 -1.32 6.34 -2 6 C-1.34 4.02 -0.68 2.04 0 0 Z " fill="#E8C1FB" transform="translate(109,88)"/>
<path d="M0 0 C0.66 0.66 1.32 1.32 2 2 C1.34 2 0.68 2 0 2 C0.3403125 2.8971875 0.3403125 2.8971875 0.6875 3.8125 C1 6 1 6 -0.0625 7.75 C-2.75171012 9.48497427 -4.86895563 9.20873629 -8 9 C-6.90101298 5.70303895 -6.05402613 4.95329411 -3.4375 2.8125 C-2.79683594 2.28269531 -2.15617188 1.75289062 -1.49609375 1.20703125 C-0.75552734 0.60955078 -0.75552734 0.60955078 0 0 Z " fill="#340B0B" transform="translate(140,172)"/>
<path d="M0 0 C1.6875 2 1.6875 2 1.9375 5.1875 C1.855 6.115625 1.7725 7.04375 1.6875 8 C1.3575 7.01 1.0275 6.02 0.6875 5 C-0.4571875 5.12375 -0.4571875 5.12375 -1.625 5.25 C-4.3125 5 -4.3125 5 -6.125 3 C-6.516875 2.34 -6.90875 1.68 -7.3125 1 C-2.97786357 -1.28772478 -2.97786357 -1.28772478 0 0 Z " fill="#54221E" transform="translate(126.3125,149)"/>
<path d="M0 0 C0.33 0 0.66 0 1 0 C1.06058594 1.0621875 1.12117188 2.124375 1.18359375 3.21875 C1.79270238 13.63715103 1.79270238 13.63715103 3 24 C1 23 1 23 -0.1484375 20.4921875 C-1.19859378 16.18558332 -0.99638155 12.50730225 -0.625 8.125 C-0.56828125 7.34125 -0.5115625 6.5575 -0.453125 5.75 C-0.31282139 3.83251738 -0.15789804 1.91611401 0 0 Z " fill="#D3A4C7" transform="translate(35,101)"/>
<path d="M0 0 C0.60328125 0.34804687 1.2065625 0.69609375 1.828125 1.0546875 C1.16425781 1.38082031 0.50039062 1.70695312 -0.18359375 2.04296875 C-4.61247936 4.23478221 -8.99181319 6.40731502 -13.171875 9.0546875 C-13.171875 6.0546875 -13.171875 6.0546875 -11.859375 4.3671875 C-10.171875 3.0546875 -10.171875 3.0546875 -7.171875 3.0546875 C-7.171875 2.3946875 -7.171875 1.7346875 -7.171875 1.0546875 C-2.70649038 -1.17800481 -2.70649038 -1.17800481 0 0 Z " fill="#E7B8DD" transform="translate(130.171875,81.9453125)"/>
<path d="M0 0 C0.66 0.33 1.32 0.66 2 1 C-1.231823 4.8781876 -4.06579514 6.06420253 -9 7 C-12.4375 6.625 -12.4375 6.625 -15 6 C-12.18372735 4.51470552 -9.40632675 3.40569968 -6.375 2.4375 C-4.14572799 1.72279984 -2.09445062 1.04722531 0 0 Z " fill="#DDB1D8" transform="translate(130,185)"/>
<path d="M0 0 C0.33 0 0.66 0 1 0 C1 7.26 1 14.52 1 22 C0.67 22 0.34 22 0 22 C-3.21760611 14.80770399 -1.37976985 7.49017921 0 0 Z " fill="#D5A8C9" transform="translate(148,114)"/>
<path d="M0 0 C2 2 2 2 2 4 C4.97 4 7.94 4 11 4 C11 4.66 11 5.32 11 6 C7.04 6.66 3.08 7.32 -1 8 C-1 4.88742431 -0.82638376 2.89234315 0 0 Z " fill="#3B100A" transform="translate(71,97)"/>
<path d="M0 0 C1.98 0 3.96 0 6 0 C5.67 1.32 5.34 2.64 5 4 C6.98 3.34 8.96 2.68 11 2 C11 3.32 11 4.64 11 6 C7.7 5.67 4.4 5.34 1 5 C0.67 3.35 0.34 1.7 0 0 Z " fill="#471927" transform="translate(23,150)"/>
<path d="M0 0 C2.4375 2.5 2.4375 2.5 4 5 C3.34 5.66 2.68 6.32 2 7 C1.67 5.68 1.34 4.36 1 3 C-1.31 2.67 -3.62 2.34 -6 2 C-6.99 3.485 -6.99 3.485 -8 5 C-9.32 4.34 -10.64 3.68 -12 3 C-7.93107848 0.04078435 -5.00801645 -0.72843876 0 0 Z " fill="#F0E0DA" transform="translate(138,87)"/>
<path d="M0 0 C2.9375 0.75 2.9375 0.75 6 2 C6.875 4.125 6.875 4.125 7 6 C1.25 6.125 1.25 6.125 -1 5 C-0.67 3.35 -0.34 1.7 0 0 Z " fill="#3B1615" transform="translate(83,159)"/>
<path d="M0 0 C2.475 0.495 2.475 0.495 5 1 C3.375 6.75 3.375 6.75 0 9 C0 6.03 0 3.06 0 0 Z " fill="#360F0C" transform="translate(90,152)"/>
<path d="M0 0 C0.33 0.66 0.66 1.32 1 2 C8.26 2.33 15.52 2.66 23 3 C23 3.33 23 3.66 23 4 C12.11 4.495 12.11 4.495 1 5 C0.67 3.35 0.34 1.7 0 0 Z " fill="#C297BA" transform="translate(75,94)"/>
<path d="M0 0 C0.144375 0.598125 0.28875 1.19625 0.4375 1.8125 C0.8872439 3.56150404 1.42892341 5.28677023 2 7 C2.99 6.67 3.98 6.34 5 6 C4.67 6.99 4.34 7.98 4 9 C4.66 9.66 5.32 10.32 6 11 C1.25 10.25 1.25 10.25 -1 8 C-1.1875 4.4375 -1.1875 4.4375 -1 1 C-0.67 0.67 -0.34 0.34 0 0 Z " fill="#4E241C" transform="translate(117,149)"/>
<path d="M0 0 C1.65 0 3.3 0 5 0 C4.67 1.65 4.34 3.3 4 5 C-1.75 4.25 -1.75 4.25 -4 2 C-2.68 2 -1.36 2 0 2 C0 1.34 0 0.68 0 0 Z " fill="#471421" transform="translate(156,150)"/>
<path d="M0 0 C0.66 0 1.32 0 2 0 C2 0.66 2 1.32 2 2 C1.01 2.495 1.01 2.495 0 3 C0.99 3.66 1.98 4.32 3 5 C1.68 5.99 0.36 6.98 -1 8 C-2.32 7.34 -3.64 6.68 -5 6 C-3.38405168 3.95880212 -1.7143618 1.95927063 0 0 Z " fill="#471A1C" transform="translate(48,111)"/>
<path d="M0 0 C0.66 0.66 1.32 1.32 2 2 C0.68 4.97 -0.64 7.94 -2 11 C-2.99 10.01 -3.98 9.02 -5 8 C-4.34 6.35 -3.68 4.7 -3 3 C-2.34 3 -1.68 3 -1 3 C-0.67 2.01 -0.34 1.02 0 0 Z " fill="#E8BBE4" transform="translate(39,85)"/>
<path d="M0 0 C0 0.99 0 1.98 0 3 C-2.70879335 4.35439668 -5.00933268 4.06501451 -8 4 C-8 3.01 -8 2.02 -8 1 C-5.29120665 -0.35439668 -2.99066732 -0.06501451 0 0 Z " fill="#3F1717" transform="translate(136,180)"/>
<path d="M0 0 C-1.97194115 1.97194115 -3.50904533 2.832365 -6 4 C-6.99 4.495 -6.99 4.495 -8 5 C-8.33 5.99 -8.66 6.98 -9 8 C-9.66 8 -10.32 8 -11 8 C-8.71283018 1.49036283 -7.11151757 -0.47410117 0 0 Z " fill="#F6E6DF" transform="translate(53,87)"/>
<path d="M0 0 C0.33 2.31 0.66 4.62 1 7 C-4.75 2.25 -4.75 2.25 -7 0 C-3.86650268 -1.04449911 -3.01031744 -0.93423645 0 0 Z " fill="#E5BBE4" transform="translate(145,82)"/>
<path d="M0 0 C2.25 -0.3125 2.25 -0.3125 5 0 C7.3125 2.5 7.3125 2.5 9 5 C8.401875 4.835 7.80375 4.67 7.1875 4.5 C4.88655664 3.8885876 4.88655664 3.8885876 2 4 C1.34 2.68 0.68 1.36 0 0 Z " fill="#36070B" transform="translate(40,173)"/>
<path d="M0 0 C1.32 1.32 2.64 2.64 4 4 C3.01 4 2.02 4 1 4 C1 4.66 1 5.32 1 6 C2.32 6.33 3.64 6.66 5 7 C1.7 7 -1.6 7 -5 7 C-4.67 6.34 -4.34 5.68 -4 5 C-2.68 5 -1.36 5 0 5 C-0.33 4.01 -0.66 3.02 -1 2 C-0.67 1.34 -0.34 0.68 0 0 Z " fill="#F3DFE8" transform="translate(57,156)"/>
<path d="M0 0 C1.65 0.33 3.3 0.66 5 1 C4.67 1.66 4.34 2.32 4 3 C3.01 3 2.02 3 1 3 C0.67 4.32 0.34 5.64 0 7 C-0.99 6.67 -1.98 6.34 -3 6 C-2.01 4.02 -1.02 2.04 0 0 Z " fill="#E3B1D8" transform="translate(148,166)"/>
<path d="M0 0 C2.64 0 5.28 0 8 0 C7.67 1.32 7.34 2.64 7 4 C4.03 3.505 4.03 3.505 1 3 C0.67 2.01 0.34 1.02 0 0 Z " fill="#4E2220" transform="translate(58,156)"/>
<path d="M0 0 C2.475 0.99 2.475 0.99 5 2 C4.67 4.31 4.34 6.62 4 9 C2 8 2 8 1.3671875 6.15234375 C1.20476563 5.42144531 1.04234375 4.69054687 0.875 3.9375 C0.70742188 3.20402344 0.53984375 2.47054687 0.3671875 1.71484375 C0.24601562 1.14894531 0.12484375 0.58304687 0 0 Z " fill="#E4C1E9" transform="translate(33,123)"/>
<path d="M0 0 C1.27875 0.28875 2.5575 0.5775 3.875 0.875 C4.95394531 1.11863281 4.95394531 1.11863281 6.0546875 1.3671875 C8 2 8 2 10 4 C6.67465243 5.10844919 4.37817425 4.84454356 1 4 C0.67 2.68 0.34 1.36 0 0 Z " fill="#EAE0D7" transform="translate(110,104)"/>
<path d="M0 0 C0.33 0.99 0.66 1.98 1 3 C1.66 3 2.32 3 3 3 C3 2.34 3 1.68 3 1 C3.99 1 4.98 1 6 1 C6 1.66 6 2.32 6 3 C7.65 3.33 9.3 3.66 11 4 C11 4.33 11 4.66 11 5 C9.54176788 5.0270043 8.08339325 5.04639787 6.625 5.0625 C5.81289062 5.07410156 5.00078125 5.08570313 4.1640625 5.09765625 C2 5 2 5 0 4 C0 2.68 0 1.36 0 0 Z " fill="#FAD3E1" transform="translate(121,163)"/>
<path d="M0 0 C0.33 0 0.66 0 1 0 C1.1953125 2.01822917 1.390625 4.03645833 1.5859375 6.0546875 C1.86374749 8.22668245 1.86374749 8.22668245 4 10 C3.01 10.66 2.02 11.32 1 12 C0.67 10.68 0.34 9.36 0 8 C-0.99 8.33 -1.98 8.66 -3 9 C-3 8.34 -3 7.68 -3 7 C-2.01 7 -1.02 7 0 7 C0 4.69 0 2.38 0 0 Z " fill="#693836" transform="translate(89,153)"/>
<path d="M0 0 C0 0.33 0 0.66 0 1 C-1.65 1 -3.3 1 -5 1 C-5 1.66 -5 2.32 -5 3 C-7.70879335 4.35439668 -10.00933268 4.06501451 -13 4 C-8.61350163 0.52105302 -5.57581513 -0.123907 0 0 Z " fill="#4C1D2F" transform="translate(138,82)"/>
<path d="M0 0 C-0.33 0.66 -0.66 1.32 -1 2 C-2.32 1.67 -3.64 1.34 -5 1 C-5 1.66 -5 2.32 -5 3 C-5.66 3 -6.32 3 -7 3 C-7.66 1.68 -8.32 0.36 -9 -1 C-5.23375329 -2.25541557 -3.62811066 -1.37061958 0 0 Z " fill="#411012" transform="translate(65,185)"/>
<path d="M0 0 C1.32 1.65 2.64 3.3 4 5 C2.02 5 0.04 5 -2 5 C-2.66 3.68 -3.32 2.36 -4 1 C-2.68 0.67 -1.36 0.34 0 0 Z " fill="#46171C" transform="translate(41,168)"/>
<path d="M0 0 C1.32 0 2.64 0 4 0 C4.99 2.64 5.98 5.28 7 8 C6.01 8.495 6.01 8.495 5 9 C4.16396622 7.68921847 3.3312426 6.37632511 2.5 5.0625 C2.0359375 4.33160156 1.571875 3.60070312 1.09375 2.84765625 C0 1 0 1 0 0 Z " fill="#F4E3E0" transform="translate(40,165)"/>
<path d="M0 0 C0.66 0 1.32 0 2 0 C2 1.32 2 2.64 2 4 C-4.15234375 3.4140625 -4.15234375 3.4140625 -6 3 C-6.33 2.34 -6.66 1.68 -7 1 C-5.5459375 1.0309375 -5.5459375 1.0309375 -4.0625 1.0625 C-1.12534105 1.35618499 -1.12534105 1.35618499 0 0 Z " fill="#471621" transform="translate(158,164)"/>
<path d="M0 0 C-0.99 0.66 -1.98 1.32 -3 2 C-3.33 2.99 -3.66 3.98 -4 5 C-7 4 -7 4 -9 1 C-5.8035914 -0.06546953 -3.34252724 -0.07427838 0 0 Z " fill="#59292A" transform="translate(80,187)"/>
<path d="M0 0 C0.99 0.33 1.98 0.66 3 1 C4.33106622 1.34227417 5.66400079 1.67751743 7 2 C7 2.99 7 3.98 7 5 C4.69 4.67 2.38 4.34 0 4 C0 2.68 0 1.36 0 0 Z " fill="#ECC6FA" transform="translate(24,155)"/>
<path d="M0 0 C1.5 1.3125 1.5 1.3125 3 3 C3 3.99 3 4.98 3 6 C0.36 5.34 -2.28 4.68 -5 4 C-3.35 2.68 -1.7 1.36 0 0 Z " fill="#EEE4DF" transform="translate(125,144)"/>
<path d="M0 0 C1.32 0.66 2.64 1.32 4 2 C4 3.33333333 4 4.66666667 4 6 C2.35 6 0.7 6 -1 6 C-0.67 4.02 -0.34 2.04 0 0 Z " fill="#3A0804" transform="translate(109,98)"/>
<path d="M0 0 C0.78375 0.04125 1.5675 0.0825 2.375 0.125 C1.385 0.62 1.385 0.62 0.375 1.125 C-0.27713292 3.14963255 -0.27713292 3.14963255 -0.625 5.125 C-1.285 5.125 -1.945 5.125 -2.625 5.125 C-2.625 4.465 -2.625 3.805 -2.625 3.125 C-3.285 2.795 -3.945 2.465 -4.625 2.125 C-2.625 0.125 -2.625 0.125 0 0 Z " fill="#3B0709" transform="translate(115.625,93.875)"/>
<path d="M0 0 C2.97 0.495 2.97 0.495 6 1 C6.33 2.65 6.66 4.3 7 6 C5.83054208 5.19152271 4.66449539 4.37810888 3.5 3.5625 C2.8503125 3.11003906 2.200625 2.65757813 1.53125 2.19140625 C1.0259375 1.79824219 0.520625 1.40507813 0 1 C0 0.67 0 0.34 0 0 Z " fill="#E6B8E1" transform="translate(68,91)"/>
<path d="M0 0 C0 0.66 0 1.32 0 2 C-6.625 3.25 -6.625 3.25 -10 1 C-6.61981469 -0.04005702 -3.5219721 -0.08004482 0 0 Z " fill="#E7DCD4" transform="translate(77,184)"/>
<path d="M0 0 C2.31 0 4.62 0 7 0 C6.67 1.32 6.34 2.64 6 4 C3.53199953 2.84826645 1.95216435 1.95216435 0 0 Z " fill="#512D2F" transform="translate(96,160)"/>
<path d="M0 0 C1.65 0 3.3 0 5 0 C5.33 1.65 5.66 3.3 6 5 C5.34 5 4.68 5 4 5 C4 4.01 4 3.02 4 2 C2.35 2 0.7 2 -1 2 C-0.67 1.34 -0.34 0.68 0 0 Z " fill="#E2B6E0" transform="translate(27,155)"/>
<path d="M0 0 C0.33 0.66 0.66 1.32 1 2 C1.99 1.67 2.98 1.34 4 1 C4.66 2.32 5.32 3.64 6 5 C5.01 5.33 4.02 5.66 3 6 C3 5.01 3 4.02 3 3 C1.68 3.33 0.36 3.66 -1 4 C-0.67 2.68 -0.34 1.36 0 0 Z " fill="#501A14" transform="translate(58,149)"/>
<path d="M0 0 C0.66 0.33 1.32 0.66 2 1 C1.67 2.65 1.34 4.3 1 6 C-0.32 6 -1.64 6 -3 6 C-2 4 -1 2 0 0 Z " fill="#3C0605" transform="translate(41,124)"/>
<path d="M0 0 C3.36720387 1.39332574 4.9859524 2.9789286 7 6 C4.0625 5.25 4.0625 5.25 1 4 C0.125 1.875 0.125 1.875 0 0 Z " fill="#F8EAE6" transform="translate(129,113)"/>
<path d="M0 0 C-3.75 3 -3.75 3 -6 3 C-6 3.66 -6 4.32 -6 5 C-6.66 5 -7.32 5 -8 5 C-8 3.68 -8 2.36 -8 1 C-5.07175348 0.02391783 -3.04386724 -0.08226668 0 0 Z " fill="#FEF6FB" transform="translate(128,97)"/>
<path d="M0 0 C0.99 0.33 1.98 0.66 3 1 C0.36 2.98 -2.28 4.96 -5 7 C-5 5.68 -5 4.36 -5 3 C-4.01 3 -3.02 3 -2 3 C-2 2.34 -2 1.68 -2 1 C-1.34 0.67 -0.68 0.34 0 0 Z " fill="#D5AACF" transform="translate(114,91)"/>
<path d="M0 0 C0.33 1.65 0.66 3.3 1 5 C-0.9375 4.6875 -0.9375 4.6875 -3 4 C-3.33 3.01 -3.66 2.02 -4 1 C-2 0 -2 0 0 0 Z " fill="#3B0B0C" transform="translate(62,87)"/>
<path d="M0 0 C1.36125 0.12375 1.36125 0.12375 2.75 0.25 C2.75 1.24 2.75 2.23 2.75 3.25 C-0.55 3.58 -3.85 3.91 -7.25 4.25 C-4.83923194 1.28290085 -3.90322061 0.30024774 0 0 Z " fill="#461920" transform="translate(125.25,86.75)"/>
<path d="M0 0 C0.66 0.33 1.32 0.66 2 1 C1.46930939 4.82097239 0.50298434 7.06171403 -2 10 C-1.54177532 6.53058454 -1.10868317 3.32604951 0 0 Z " fill="#ECDED8" transform="translate(41,132)"/>
<path d="M0 0 C3.125 0.375 3.125 0.375 6 1 C5.67 1.66 5.34 2.32 5 3 C2.5625 3.75 2.5625 3.75 0 4 C-0.66 3.34 -1.32 2.68 -2 2 C-1.34 1.34 -0.68 0.68 0 0 Z " fill="#390B0C" transform="translate(116,102)"/>
<path d="M0 0 C2.97 0.495 2.97 0.495 6 1 C5.67 1.99 5.34 2.98 5 4 C2.03 3.505 2.03 3.505 -1 3 C-0.67 2.01 -0.34 1.02 0 0 Z " fill="#EFE0DC" transform="translate(115,98)"/>
<path d="M0 0 C0.66 0.33 1.32 0.66 2 1 C1.625 3.9375 1.625 3.9375 1 7 C0.01 7.495 0.01 7.495 -1 8 C-1.04241723 5.66705225 -1.04092937 3.33297433 -1 1 C-0.67 0.67 -0.34 0.34 0 0 Z " fill="#481118" transform="translate(37,95)"/>
</svg>
